<svg width="40" height="40" viewBox="0 0 40 40" fill="none" xmlns="http://www.w3.org/2000/svg">
<path d="M34.8688 10.6906L32.3688 5.69063C32.2648 5.48295 32.1051 5.30833 31.9075 5.18635C31.7099 5.06436 31.4822 4.99983 31.25 5H8.75C8.51778 4.99983 8.2901 5.06436 8.09249 5.18635C7.89489 5.30833 7.73517 5.48295 7.63125 5.69063L5.13125 10.6906C5.04509 10.8645 5.00018 11.0559 5 11.25V32.5C5 33.163 5.26339 33.7989 5.73223 34.2678C6.20107 34.7366 6.83696 35 7.5 35H32.5C33.163 35 33.7989 34.7366 34.2678 34.2678C34.7366 33.7989 35 33.163 35 32.5V11.25C34.9998 11.0559 34.9549 10.8645 34.8688 10.6906ZM25.8844 22.1344C25.7683 22.2506 25.6304 22.3428 25.4787 22.4057C25.3269 22.4686 25.1643 22.501 25 22.501C24.8357 22.501 24.6731 22.4686 24.5213 22.4057C24.3696 22.3428 24.2317 22.2506 24.1156 22.1344L21.25 19.2672V28.75C21.25 29.0815 21.1183 29.3995 20.8839 29.6339C20.6495 29.8683 20.3315 30 20 30C19.6685 30 19.3505 29.8683 19.1161 29.6339C18.8817 29.3995 18.75 29.0815 18.75 28.75V19.2672L15.8844 22.1344C15.7682 22.2505 15.6304 22.3426 15.4786 22.4055C15.3269 22.4683 15.1642 22.5007 15 22.5007C14.8358 22.5007 14.6731 22.4683 14.5214 22.4055C14.3696 22.3426 14.2318 22.2505 14.1156 22.1344C13.9995 22.0182 13.9074 21.8804 13.8445 21.7286C13.7817 21.5769 13.7493 21.4142 13.7493 21.25C13.7493 21.0858 13.7817 20.9231 13.8445 20.7714C13.9074 20.6196 13.9995 20.4818 14.1156 20.3656L19.1156 15.3656C19.2317 15.2494 19.3696 15.1572 19.5213 15.0943C19.6731 15.0314 19.8357 14.999 20 14.999C20.1643 14.999 20.3269 15.0314 20.4787 15.0943C20.6304 15.1572 20.7683 15.2494 20.8844 15.3656L25.8844 20.3656C26.0006 20.4817 26.0928 20.6196 26.1557 20.7713C26.2186 20.9231 26.251 21.0857 26.251 21.25C26.251 21.4143 26.2186 21.5769 26.1557 21.7287C26.0928 21.8804 26.0006 22.0183 25.8844 22.1344ZM8.27187 10L9.52187 7.5H30.4781L31.7281 10H8.27187Z" fill="#F5A623"/>
</svg>
