<svg width="19" height="19" viewBox="0 0 19 19" fill="none" xmlns="http://www.w3.org/2000/svg">
<path d="M9.85156 0.39502C13.4466 0.39502 15.2443 0.394824 16.5391 1.25146C17.1172 1.63402 17.6126 2.12936 17.9951 2.70752C18.8518 4.00225 18.8516 5.79995 18.8516 9.39502C18.8516 12.9901 18.8518 14.7878 17.9951 16.0825C17.6126 16.6607 17.1172 17.156 16.5391 17.5386C15.2443 18.3952 13.4466 18.395 9.85156 18.395C6.25649 18.395 4.45879 18.3952 3.16406 17.5386C2.5859 17.156 2.09056 16.6607 1.70801 16.0825C0.851367 14.7878 0.851562 12.9901 0.851562 9.39502C0.851563 5.79995 0.851367 4.00225 1.70801 2.70752C2.09056 2.12936 2.5859 1.63402 3.16406 1.25146C4.45879 0.394824 6.25649 0.39502 9.85156 0.39502ZM9.85156 4.73584C7.27832 4.73584 5.19251 6.8218 5.19238 9.39502C5.19238 11.9683 7.27824 14.0542 9.85156 14.0542C12.4248 14.0541 14.5107 11.9683 14.5107 9.39502C14.5106 6.82186 12.4247 4.73593 9.85156 4.73584ZM9.85156 6.31201C11.5541 6.3121 12.9344 7.69248 12.9346 9.39502C12.9346 11.0977 11.5542 12.4779 9.85156 12.478C8.14887 12.478 6.76855 11.0977 6.76855 9.39502C6.76868 7.69243 8.14894 6.31201 9.85156 6.31201ZM14.6953 3.40674C14.0908 3.40674 13.5998 3.89694 13.5996 4.50146C13.5996 5.10612 14.0907 5.59619 14.6953 5.59619C15.2997 5.59593 15.79 5.10596 15.79 4.50146C15.7899 3.8971 15.2997 3.40699 14.6953 3.40674Z" fill="#FBFBFB"/>
</svg>
