<svg width="19" height="18" viewBox="0 0 19 18" fill="none" xmlns="http://www.w3.org/2000/svg">
<path d="M0.851562 2.81507C0.851562 2.23786 1.05427 1.76167 1.45967 1.3865C1.86507 1.01131 2.39211 0.82373 3.04075 0.82373C3.67782 0.82373 4.19326 1.00842 4.58708 1.37784C4.99248 1.7588 5.19519 2.25518 5.19519 2.86702C5.19519 3.42113 4.99829 3.88288 4.60446 4.2523C4.19906 4.63325 3.66623 4.82373 3.006 4.82373H2.98863C2.35156 4.82373 1.83612 4.63325 1.4423 4.2523C1.04847 3.87135 0.851562 3.39227 0.851562 2.81507ZM1.07743 17.9666V6.39949H4.93457V17.9666H1.07743ZM7.07164 17.9666H10.9288V11.5077C10.9288 11.1037 10.9751 10.792 11.0678 10.5726C11.2299 10.1801 11.4761 9.84825 11.8062 9.57697C12.1363 9.30568 12.5504 9.17005 13.0485 9.17005C14.3458 9.17005 14.9944 10.0416 14.9944 11.7848V17.9666H18.8516V11.3345C18.8516 9.62603 18.4462 8.33022 17.6353 7.4471C16.8245 6.56399 15.7531 6.12243 14.4211 6.12243C12.9269 6.12243 11.7628 6.76312 10.9288 8.04451V8.07914H10.9114L10.9288 8.04451V6.39949H7.07164C7.0948 6.76889 7.10639 7.91751 7.10639 9.84537C7.10639 11.7732 7.0948 14.4803 7.07164 17.9666Z" fill="#FBFBFB"/>
</svg>
