<svg width="174" height="39" viewBox="0 0 174 39" fill="none" xmlns="http://www.w3.org/2000/svg">
<path d="M50.203 18.2812C50.2376 18.9474 50.2376 19.6149 50.203 20.2812H39.026C39.068 19.9542 39.088 19.6202 39.088 19.2812H23.088C23.0879 19.6156 23.1086 19.9495 23.15 20.2812H12.255C12.245 20.1152 12.239 19.9492 12.235 19.7812H4.286L4.28 19.5312H0V19.0312H4.281L4.285 18.7812H12.235C12.239 18.6143 12.246 18.4472 12.254 18.2812H50.203Z" fill="#2F2352"/>
<path d="M38.837 17.2812H50.124C50.054 16.6032 49.947 15.9362 49.807 15.2812H12.651C12.615 15.4472 12.581 15.6143 12.551 15.7812H4.601L4.555 16.0372H0V16.5372H4.476L4.442 16.7812H12.392C12.37 16.9472 12.35 17.1142 12.332 17.2812H23.342C23.43 16.9382 23.541 16.6052 23.672 16.2812H38.507C38.639 16.6068 38.7492 16.9409 38.837 17.2812Z" fill="#2F2352"/>
<path d="M37.334 14.2823H49.564C49.378 13.6003 49.155 12.9312 48.897 12.2812H13.56C13.494 12.4472 13.43 12.6133 13.37 12.7812H5.42L5.342 13.0002H0V13.5013H5.175L5.087 13.7823H13.037C12.987 13.9483 12.939 14.1153 12.894 14.2823H24.844C25.132 13.9223 25.452 13.5883 25.797 13.2823H36.381C36.7267 13.5877 37.0456 13.9222 37.334 14.2823Z" fill="#2F2352"/>
<path d="M13.99 11.2813H48.467C48.147 10.5913 47.785 9.92325 47.387 9.28125H15.07C14.968 9.44625 14.868 9.61325 14.771 9.78125H6.821L6.694 10.0053H0V10.5053H6.423L6.282 10.7813H14.231C14.148 10.9473 14.068 11.1133 13.99 11.2813Z" fill="#2F2352"/>
<path d="M50.125 21.2812H12.332C12.3498 21.4481 12.3698 21.6148 12.392 21.7812H4.442C4.45252 21.86 4.46352 21.9387 4.475 22.0173H0V22.5173H4.554C4.56905 22.6054 4.58471 22.6933 4.601 22.7812H12.55C12.5811 22.9483 12.6144 23.115 12.65 23.2812H24.158C23.973 22.9613 23.81 22.6272 23.67 22.2812H38.508C38.368 22.6272 38.204 22.9613 38.019 23.2812H49.807C49.947 22.6272 50.054 21.9592 50.125 21.2812Z" fill="#2F2352"/>
<path d="M49.563 24.2812H12.893C12.939 24.4492 12.987 24.6152 13.037 24.7812H5.088C5.11406 24.8677 5.14072 24.9541 5.168 25.0403H0V25.5403H5.334L5.42 25.7812H13.37C13.431 25.9488 13.4944 26.1155 13.56 26.2812H27.213C26.7063 25.9999 26.2315 25.6646 25.797 25.2812H36.381C35.9465 25.6646 35.4717 25.9999 34.965 26.2812H48.897C49.155 25.6313 49.378 24.9643 49.563 24.2812Z" fill="#2F2352"/>
<path d="M48.467 27.2812H13.99V27.2823C14.0682 27.4501 14.1489 27.6168 14.232 27.7823H6.282L6.405 28.0223H0V28.5223H6.674C6.722 28.6093 6.771 28.6953 6.821 28.7812H14.77C14.8674 28.9495 14.9674 29.1161 15.07 29.2812H47.387C47.7867 28.6367 48.1473 27.9689 48.467 27.2812Z" fill="#2F2352"/>
<path d="M17.372 32.2812C17.218 32.1172 17.067 31.9512 16.92 31.7812H8.97C8.899 31.7003 8.829 31.6193 8.76 31.5363H0V31.0363H8.351L8.153 30.7812H16.103C15.977 30.6172 15.855 30.4502 15.735 30.2812H46.722C46.2221 30.984 45.6752 31.6523 45.085 32.2812H17.372Z" fill="#2F2352"/>
<path d="M20.977 35.2812C20.727 35.1213 20.48 34.9542 20.237 34.7812H12.288C12.182 34.7062 12.076 34.6293 11.972 34.5513H0V34.0513H11.327C11.217 33.9633 11.108 33.8733 11 33.7812H18.95C18.758 33.6183 18.569 33.4513 18.384 33.2812H44.074C43.2683 34.021 42.4004 34.6902 41.48 35.2812H20.977Z" fill="#2F2352"/>
<path d="M31.228 38.2812C29.865 38.2812 28.536 38.1382 27.254 37.8652C25.972 38.1382 24.642 38.2812 23.279 38.2812C21.347 38.2812 19.482 37.9933 17.725 37.4573H0V36.9573H16.295C16.152 36.9003 16.009 36.8413 15.867 36.7812H23.817C23.45 36.6262 23.089 36.4593 22.733 36.2812H39.723C37.167 37.5612 34.282 38.2812 31.228 38.2812Z" fill="#2F2352"/>
<path d="M46.722 8.28125H15.735C15.855 8.11325 15.977 7.94625 16.103 7.78125H8.154C8.229 7.68225 8.305 7.58425 8.382 7.48725H0V6.98725H8.794L8.97 6.78125H16.919C17.067 6.61125 17.218 6.44525 17.372 6.28125H45.085C45.6752 6.91017 46.2221 7.57837 46.722 8.28125Z" fill="#2F2352"/>
<path d="M44.073 5.28125H18.383C18.569 5.11125 18.758 4.94425 18.95 4.78125H11.001C11.105 4.69325 11.21 4.60625 11.316 4.52025H0V4.02025H11.96C12.068 3.93927 12.1779 3.86029 12.2879 3.78131L20.237 3.78125C20.48 3.60925 20.727 3.44225 20.977 3.28125H41.48C42.4001 3.87237 43.2676 4.5415 44.073 5.28125Z" fill="#2F2352"/>
<path d="M39.724 2.28127H22.734C23.0896 2.10324 23.4508 1.93649 23.817 1.78127H0V1.28127H17.179C19.094 0.633271 21.145 0.281272 23.279 0.281272C24.6149 0.280705 25.9473 0.420472 27.254 0.698272C28.536 0.425272 29.865 0.281272 31.229 0.281272C34.1778 0.276822 37.0869 0.961706 39.724 2.28127Z" fill="#2F2352"/>
<path d="M112.006 0C112.663 0 113.179 0.164 113.554 0.492C113.945 0.805 114.14 1.242 114.14 1.806C114.14 2.369 113.945 2.814 113.554 3.142C113.179 3.455 112.663 3.612 112.006 3.612C111.35 3.612 110.826 3.455 110.435 3.142C110.06 2.814 109.872 2.369 109.872 1.806C109.872 1.243 110.06 0.806 110.435 0.492C110.826 0.164 111.35 0 112.006 0ZM113.835 5.792V15.993C113.835 16.65 113.945 17.096 114.164 17.33C114.398 17.565 114.789 17.682 115.336 17.682V18.174C114.899 18.1526 114.461 18.137 114.023 18.127C113.422 18.0955 112.819 18.0799 112.217 18.08C111.608 18.08 110.99 18.096 110.365 18.127C109.896 18.1373 109.427 18.153 108.958 18.174V17.682C109.505 17.682 109.888 17.565 110.107 17.33C110.341 17.096 110.459 16.65 110.459 15.993V8.606C110.459 7.903 110.349 7.386 110.13 7.059C109.927 6.715 109.536 6.543 108.958 6.543V6.05C109.458 6.097 109.943 6.12 110.412 6.12C111.068 6.12 111.678 6.097 112.241 6.05C112.819 5.988 113.351 5.902 113.835 5.792Z" fill="#2F2352"/>
<path fill-rule="evenodd" clip-rule="evenodd" d="M120.435 5.79301C119.951 5.90301 119.419 5.98901 118.841 6.05101C118.262 6.09801 117.652 6.12101 117.011 6.12101C116.542 6.12101 116.058 6.09801 115.557 6.05101V6.54401C116.12 6.54401 116.511 6.71601 116.73 7.06001C116.949 7.38801 117.058 7.90401 117.058 8.60701V20.333C117.058 20.958 116.949 21.38 116.73 21.599C116.527 21.818 116.167 21.927 115.651 21.927V22.42L116.894 22.35C117.465 22.3341 118.035 22.3261 118.606 22.326C119.403 22.326 120.154 22.334 120.857 22.349C121.576 22.381 122.139 22.404 122.546 22.419V21.927C121.889 21.927 121.373 21.802 120.998 21.552C120.623 21.318 120.435 20.833 120.435 20.098V17.748C120.641 17.92 120.883 18.062 121.162 18.175C121.662 18.395 122.217 18.504 122.827 18.504C123.656 18.504 124.398 18.355 125.055 18.058C125.723 17.7643 126.31 17.3139 126.767 16.745C127.251 16.151 127.619 15.424 127.869 14.564C128.135 13.704 128.268 12.704 128.268 11.562C128.268 10.265 128.08 9.18601 127.705 8.32601C127.33 7.45001 126.829 6.80201 126.204 6.38001C125.579 5.94224 124.833 5.71236 124.07 5.72301C123.163 5.72301 122.366 5.95701 121.678 6.42601C121.137 6.79101 120.723 7.29701 120.435 7.94601V5.79301ZM120.435 8.75101V17.252C120.565 17.406 120.722 17.534 120.904 17.636C121.201 17.792 121.537 17.87 121.913 17.87C122.616 17.87 123.171 17.636 123.578 17.167C123.984 16.682 124.273 16.01 124.445 15.15C124.633 14.275 124.727 13.235 124.727 12.031C124.727 10.687 124.641 9.63101 124.469 8.86501C124.297 8.09901 124.062 7.55201 123.765 7.22401C123.468 6.89501 123.109 6.73101 122.686 6.73101C122.124 6.73101 121.608 6.95101 121.139 7.38801C120.786 7.72801 120.551 8.18301 120.435 8.75101Z" fill="#2F2352"/>
<path d="M133.653 5.72288C134.31 5.72288 134.88 5.80888 135.365 5.98088C135.865 6.13688 136.225 6.29388 136.444 6.44988C136.975 6.80988 137.304 6.57488 137.429 5.74588H137.921C137.89 6.18388 137.866 6.72388 137.851 7.36388C137.835 7.98988 137.827 8.82588 137.827 9.87388H137.335C137.254 9.28753 137.105 8.71282 136.889 8.16188C136.69 7.62718 136.359 7.15121 135.928 6.77788C135.521 6.41788 134.99 6.23788 134.333 6.23788C133.88 6.23788 133.497 6.37188 133.184 6.63788C132.871 6.88788 132.715 7.25488 132.715 7.73988C132.715 8.20888 132.856 8.62288 133.137 8.98288C133.419 9.32688 133.778 9.66288 134.216 9.99088C134.669 10.3039 135.138 10.6399 135.623 10.9989C136.139 11.3899 136.608 11.7809 137.03 12.1719C137.434 12.5256 137.775 12.946 138.038 13.4149C138.289 13.8679 138.414 14.4069 138.414 15.0329C138.414 15.7359 138.21 16.3529 137.804 16.8849C137.397 17.4009 136.858 17.7999 136.186 18.0809C135.529 18.3629 134.794 18.5039 133.982 18.5039C133.555 18.5087 133.13 18.4614 132.715 18.3629C132.389 18.2819 132.075 18.1638 131.777 18.0109C131.574 17.9169 131.378 17.8309 131.191 17.7529C131.031 17.6652 130.866 17.587 130.698 17.5189C130.542 17.4719 130.401 17.5259 130.276 17.6829C130.167 17.8389 130.081 18.0579 130.018 18.3389H129.526C129.557 17.8389 129.581 17.2289 129.596 16.5099C129.612 15.7909 129.62 14.8369 129.62 13.6499H130.112C130.206 14.4939 130.378 15.2439 130.628 15.8999C130.878 16.5419 131.214 17.0499 131.636 17.4249C132.074 17.7849 132.621 17.9649 133.278 17.9649C133.544 17.9649 133.802 17.9099 134.052 17.7999C134.302 17.6899 134.505 17.5099 134.662 17.2599C134.834 17.0099 134.92 16.6899 134.92 16.2999C134.92 15.6109 134.693 15.0399 134.239 14.5869C133.802 14.1339 133.239 13.6409 132.551 13.1099C132.051 12.7029 131.574 12.3049 131.121 11.9139C130.701 11.5296 130.337 11.0875 130.042 10.6009C129.756 10.1014 129.61 9.53418 129.62 8.95888C129.62 8.25588 129.807 7.66188 130.182 7.17688C130.564 6.68682 131.076 6.31317 131.66 6.09788C132.294 5.84614 132.97 5.71883 133.653 5.72288ZM162.764 5.98088C162.357 5.80888 161.826 5.72288 161.169 5.72288C160.433 5.71541 159.708 5.89284 159.059 6.23888C158.418 6.56688 157.91 7.12188 157.534 7.90388V5.79388C157.05 5.90288 156.518 5.98888 155.94 6.05088C155.377 6.09788 154.767 6.12088 154.111 6.12088C153.642 6.12088 153.157 6.09788 152.657 6.05088V6.54388C153.235 6.54388 153.626 6.71588 153.829 7.05988C154.048 7.38788 154.157 7.90388 154.157 8.60688V15.9939C154.157 16.6509 154.04 17.0969 153.806 17.3309C153.587 17.5659 153.204 17.6829 152.657 17.6829V18.1749C153.125 18.1539 153.594 18.1382 154.064 18.1279C154.673 18.097 155.283 18.0814 155.893 18.0809C156.44 18.0809 156.972 18.0969 157.487 18.1279C158.019 18.1439 158.41 18.1599 158.66 18.1749V17.6829C158.254 17.6829 157.964 17.5659 157.792 17.3309C157.62 17.0969 157.534 16.6509 157.534 15.9939V9.47488C157.534 8.95888 157.636 8.49788 157.839 8.09088C158.058 7.66888 158.339 7.34088 158.683 7.10688C159.013 6.87669 159.406 6.75379 159.809 6.75488C160.169 6.75488 160.434 6.84088 160.606 7.01288C160.794 7.16888 160.919 7.39588 160.982 7.69288C161.044 7.97388 161.075 8.30988 161.075 8.70088V15.9939C161.075 16.6509 160.989 17.0969 160.817 17.3309C160.661 17.5659 160.372 17.6829 159.95 17.6829V18.1749C160.231 18.1599 160.645 18.1439 161.193 18.1279C162.302 18.0646 163.413 18.0646 164.523 18.1279C165.101 18.1439 165.531 18.1599 165.812 18.1749V17.6829C165.312 17.6829 164.96 17.5659 164.757 17.3309C164.554 17.0969 164.452 16.6509 164.452 15.9939V9.57888L164.451 9.50588L164.447 9.26888C164.483 8.87688 164.587 8.49433 164.757 8.13888C164.976 7.71588 165.257 7.37988 165.601 7.12988C165.945 6.87988 166.321 6.75488 166.727 6.75488C167.133 6.75488 167.431 6.84088 167.618 7.01288C167.821 7.16888 167.954 7.39588 168.017 7.69288C168.095 7.97388 168.134 8.30988 168.134 8.70088V15.9939C168.134 16.6509 168.048 17.0969 167.876 17.3309C167.72 17.5659 167.431 17.6829 167.008 17.6829V18.1749C167.29 18.1599 167.704 18.1439 168.251 18.1279C168.805 18.0964 169.36 18.0808 169.916 18.0809C170.495 18.0809 171.081 18.0969 171.675 18.1279C172.269 18.1439 172.715 18.1599 173.012 18.1749V17.6829C172.465 17.6829 172.074 17.5659 171.839 17.3309C171.62 17.0969 171.511 16.6509 171.511 15.9939V9.68588C171.511 8.90388 171.456 8.27888 171.347 7.80988C171.237 7.32488 171.058 6.93488 170.807 6.63788C170.557 6.35588 170.229 6.13788 169.822 5.98088C169.416 5.80888 168.884 5.72288 168.228 5.72288C167.431 5.72288 166.68 5.88688 165.977 6.21488C165.303 6.53688 164.757 7.15088 164.338 8.05688C164.323 7.97409 164.307 7.89173 164.288 7.80988C164.179 7.32488 163.999 6.93488 163.749 6.63788C163.499 6.35588 163.17 6.13788 162.764 5.98088ZM150.817 5.79288C150.332 5.90288 149.801 5.98888 149.222 6.05088C148.66 6.09788 148.05 6.12088 147.393 6.12088C146.924 6.12088 146.44 6.09788 145.939 6.05088V6.54388C146.518 6.54388 146.909 6.71588 147.112 7.05988C147.331 7.38788 147.44 7.90388 147.44 8.60688V14.7509C147.44 15.2669 147.331 15.7359 147.112 16.1579C146.926 16.5443 146.643 16.8758 146.291 17.1199C145.963 17.3546 145.568 17.478 145.165 17.4719C144.775 17.4719 144.478 17.3929 144.274 17.2369C144.063 17.0525 143.915 16.8066 143.852 16.5339C143.785 16.194 143.754 15.8482 143.758 15.5019V5.79288C143.274 5.90288 142.742 5.98888 142.164 6.05088C141.601 6.09788 140.991 6.12088 140.335 6.12088C139.866 6.12088 139.381 6.09788 138.881 6.05088V6.54388C139.459 6.54388 139.85 6.71588 140.053 7.05988C140.272 7.38788 140.381 7.90388 140.381 8.60688V14.5399C140.381 15.3059 140.436 15.9319 140.546 16.4159C140.655 16.9009 140.843 17.2919 141.108 17.5889C141.343 17.8549 141.663 18.0739 142.07 18.2459C142.476 18.4169 143.008 18.5039 143.665 18.5039C144.478 18.5039 145.212 18.3389 145.869 18.0109C146.541 17.6669 147.065 17.1039 147.44 16.3229V18.4329C147.963 18.304 148.497 18.2177 149.035 18.1749C149.598 18.1279 150.207 18.1049 150.864 18.1049C151.349 18.1049 151.833 18.1279 152.318 18.1749V17.6829C151.755 17.6829 151.364 17.5189 151.145 17.1899C150.926 16.8459 150.817 16.3229 150.817 15.6199V5.79288Z" fill="#2F2352"/>
<path fill-rule="evenodd" clip-rule="evenodd" d="M105.454 6.35641C104.594 5.93441 103.593 5.72341 102.452 5.72341C101.342 5.72341 100.349 5.93441 99.4741 6.35641C98.6141 6.77841 97.9341 7.45841 97.4341 8.39641C96.9491 9.33441 96.7061 10.5774 96.7061 12.1254C96.7061 13.6734 96.9491 14.9154 97.4331 15.8544C97.9331 16.7764 98.6131 17.4484 99.4731 17.8704C100.349 18.2924 101.342 18.5044 102.452 18.5044C103.593 18.5044 104.594 18.2924 105.454 17.8704C106.313 17.4484 106.986 16.7764 107.47 15.8544C107.955 14.9164 108.197 13.6734 108.197 12.1254C108.197 10.5774 107.955 9.33541 107.47 8.39641C106.986 7.45841 106.313 6.77841 105.454 6.35641ZM100.881 7.59941C101.303 6.66141 101.827 6.19241 102.452 6.19241C103.093 6.19241 103.617 6.66141 104.023 7.59941C104.445 8.52141 104.656 10.0304 104.656 12.1254C104.656 14.2204 104.445 15.7294 104.023 16.6514C103.617 17.5734 103.093 18.0354 102.452 18.0354C101.827 18.0354 101.303 17.5734 100.881 16.6514C100.459 15.7294 100.248 14.2204 100.248 12.1254C100.248 10.0304 100.458 8.52141 100.881 7.59941ZM89.0591 22.5844C88.0891 22.5844 87.2221 22.4984 86.4561 22.3264C85.7061 22.1704 85.1121 21.9204 84.6741 21.5764C84.2521 21.2474 84.0411 20.8414 84.0411 20.3564C84.0411 19.8714 84.2591 19.4344 84.6971 19.0434C85.1351 18.6684 85.7841 18.3714 86.6441 18.1524L86.8541 18.5274C86.5856 18.729 86.3622 18.9845 86.1981 19.2774C86.0731 19.5594 86.0101 19.8484 86.0101 20.1454C86.0101 20.8024 86.3071 21.3024 86.9021 21.6454C87.5121 22.0054 88.3321 22.1854 89.3641 22.1854C90.0671 22.1854 90.6931 22.0914 91.2401 21.9044C91.8031 21.7164 92.2401 21.4344 92.5531 21.0604C92.8821 20.6844 93.0461 20.2234 93.0461 19.6764C93.0461 19.2074 92.8741 18.8084 92.5301 18.4804C92.1861 18.1674 91.4981 18.0114 90.4661 18.0114H89.0121C88.3721 18.0114 87.8081 17.9414 87.3241 17.8004C86.8541 17.6604 86.4871 17.4404 86.2211 17.1434C85.9561 16.8314 85.8231 16.4404 85.8231 15.9714C85.8231 15.3144 86.0811 14.7364 86.5971 14.2354C87.0011 13.8434 87.5591 13.4704 88.2711 13.1174C87.803 13.0592 87.3432 12.9468 86.9011 12.7824C86.1981 12.5164 85.6431 12.1094 85.2371 11.5624C84.8301 11.0154 84.6271 10.3124 84.6271 9.45241C84.6271 8.59241 84.8301 7.88841 85.2371 7.34141C85.6431 6.77841 86.1981 6.37141 86.9021 6.12141C87.6051 5.85641 88.4021 5.72341 89.2931 5.72341C90.1851 5.72341 90.9821 5.85641 91.6851 6.12241C92.1491 6.28641 92.5471 6.51941 92.8821 6.81941C93.0811 6.53241 93.3231 6.27641 93.6081 6.05141C94.1401 5.64541 94.7111 5.44141 95.3201 5.44141C95.8201 5.44141 96.1961 5.58241 96.4461 5.86441C96.7121 6.12941 96.8451 6.48141 96.8451 6.91941C96.8451 7.38841 96.7191 7.73941 96.4691 7.97441C96.2191 8.19441 95.9381 8.30341 95.6251 8.30341C95.3499 8.29977 95.0846 8.20001 94.8751 8.02141C94.6551 7.83341 94.5311 7.55241 94.5001 7.17741C94.4731 6.84141 94.5671 6.42541 94.7821 5.92741C94.3261 6.12141 93.9741 6.34241 93.7261 6.59141C93.5391 6.77167 93.3758 6.97497 93.2401 7.19641C93.2781 7.24341 93.3151 7.29241 93.3501 7.34141C93.7571 7.88841 93.9601 8.59141 93.9601 9.45141C93.9601 10.3114 93.7571 11.0154 93.3501 11.5624C92.9441 12.1094 92.3891 12.5164 91.6851 12.7824C90.9821 13.0474 90.1851 13.1804 89.2931 13.1804C89.1597 13.1805 89.0263 13.1775 88.8931 13.1714C88.6821 13.3144 88.4791 13.4664 88.2851 13.6264C88.1646 13.7207 88.0679 13.8419 88.0028 13.9803C87.9377 14.1187 87.9059 14.2705 87.9101 14.4234C87.9101 14.9234 88.2231 15.1734 88.8481 15.1734H91.4041C92.2641 15.1734 93.0301 15.2754 93.7021 15.4784C94.3901 15.6824 94.9291 16.0184 95.3201 16.4874C95.7271 16.9404 95.9301 17.5344 95.9301 18.2694C95.9301 19.0354 95.6801 19.7464 95.1801 20.4034C94.6951 21.0604 93.9451 21.5834 92.9281 21.9744C91.9121 22.3814 90.6221 22.5844 89.0591 22.5844ZM89.2931 12.7584C89.7161 12.7584 90.0431 12.5244 90.2781 12.0554C90.5131 11.5704 90.6301 10.7024 90.6301 9.45241C90.6301 8.20141 90.5131 7.34141 90.2781 6.87241C90.0441 6.38741 89.7161 6.14541 89.2941 6.14541C88.8871 6.14541 88.5591 6.38741 88.3091 6.87241C88.0741 7.34141 87.9571 8.20141 87.9571 9.45241C87.9571 10.7024 88.0741 11.5704 88.3091 12.0554C88.5591 12.5244 88.8871 12.7584 89.2931 12.7584ZM81.0051 6.35641C80.1451 5.93441 79.1451 5.72341 78.0041 5.72341C76.8941 5.72341 75.9011 5.93441 75.0261 6.35641C74.1661 6.77841 73.4861 7.45841 72.9861 8.39641C72.5011 9.33441 72.2581 10.5774 72.2581 12.1254C72.2581 13.6734 72.5011 14.9154 72.9851 15.8544C73.4851 16.7764 74.1651 17.4484 75.0251 17.8704C75.9011 18.2924 76.8941 18.5044 78.0041 18.5044C79.1451 18.5044 80.1461 18.2924 81.0051 17.8704C81.8651 17.4484 82.5371 16.7764 83.0221 15.8544C83.5071 14.9164 83.7491 13.6734 83.7491 12.1254C83.7491 10.5774 83.5071 9.33541 83.0221 8.39641C82.5381 7.45841 81.8651 6.77841 81.0051 6.35641ZM76.4321 7.59941C76.8551 6.66141 77.3781 6.19241 78.0041 6.19241C78.6441 6.19241 79.1681 6.66141 79.5741 7.59941C79.9971 8.52141 80.2081 10.0304 80.2081 12.1254C80.2081 14.2204 79.9971 15.7294 79.5751 16.6514C79.1681 17.5734 78.6451 18.0354 78.0041 18.0354C77.3781 18.0354 76.8541 17.5734 76.4321 16.6514C76.0101 15.7294 75.7991 14.2204 75.7991 12.1254C75.7991 10.0304 76.0101 8.52141 76.4321 7.59941Z" fill="#2F2352"/>
<path d="M65.9429 1.57031V2.04031C65.4119 2.05531 65.0049 2.11731 64.7239 2.22731C64.5953 2.27086 64.4791 2.34476 64.3851 2.44277C64.2911 2.54077 64.2221 2.65998 64.1839 2.79031C64.0909 3.05531 64.0439 3.47831 64.0439 4.05631V15.9693C64.0439 16.4533 64.0749 16.8133 64.1379 17.0483C64.2159 17.2823 64.3569 17.4383 64.5599 17.5173C64.7789 17.5953 65.0999 17.6343 65.5209 17.6343H66.6709C67.2009 17.6343 67.7019 17.5093 68.1709 17.2593C68.6409 17.0093 69.0619 16.6573 69.4369 16.2033C69.8325 15.6991 70.1491 15.1377 70.3759 14.5383C70.6259 13.8983 70.8129 13.1863 70.9379 12.4043H71.4779C71.4309 12.9363 71.4079 13.6243 71.4079 14.4683C71.4079 14.8283 71.4149 15.3513 71.4309 16.0393C71.4469 16.7273 71.4929 17.4393 71.5709 18.1733C70.6726 18.1402 69.7738 18.1245 68.8749 18.1263C67.8749 18.1113 66.9829 18.1033 66.2009 18.1033H64.7009C64.0909 18.1033 63.4339 18.1113 62.7309 18.1263C62.0269 18.1263 61.3159 18.1343 60.5969 18.1503C59.8769 18.1503 59.1969 18.1583 58.5569 18.1733V17.7043C59.0569 17.6733 59.4319 17.6103 59.6819 17.5173C59.9319 17.4233 60.0959 17.2353 60.1749 16.9543C60.2679 16.6723 60.3149 16.2503 60.3149 15.6873V4.05631C60.3149 3.47731 60.2679 3.05631 60.1749 2.79031C60.1441 2.66022 60.0805 2.54019 59.9902 2.44164C59.8999 2.34309 59.7858 2.2693 59.6589 2.22731C59.4089 2.11731 59.0409 2.05531 58.5569 2.03931V1.57031C59.7914 1.61605 61.0266 1.63939 62.2619 1.64031C62.9499 1.64031 63.6219 1.63331 64.2779 1.61731C64.9509 1.60131 65.5059 1.58631 65.9429 1.57031Z" fill="#2F2352"/>
<path fill-rule="evenodd" clip-rule="evenodd" d="M170.629 37.5537C170.596 37.3857 170.618 37.1667 170.697 36.8967L174 24.9297C173.472 25.1466 172.924 25.3156 172.365 25.4347C171.792 25.5477 171.135 25.6087 170.393 25.6207L170.275 25.9747C170.826 25.9747 171.169 26.0647 171.304 26.2447C171.438 26.4247 171.455 26.7047 171.354 27.0867L170.572 30.0357C170.523 29.8934 170.439 29.7661 170.326 29.6657C170.135 29.4857 169.871 29.3957 169.534 29.3957C168.86 29.3957 168.236 29.5477 167.663 29.8507C167.087 30.1656 166.568 30.5761 166.129 31.0647C165.668 31.5598 165.277 32.1156 164.966 32.7167C164.66 33.3016 164.417 33.9174 164.241 34.5537C164.082 35.1018 163.997 35.6689 163.988 36.2397C163.988 36.7787 164.073 37.2227 164.241 37.5707C164.41 37.9077 164.64 38.1607 164.932 38.3287C165.224 38.4867 165.55 38.5647 165.91 38.5647C166.46 38.5647 166.955 38.4027 167.393 38.0767C167.831 37.7397 168.241 37.2227 168.624 36.5257C168.784 36.2417 168.945 35.9227 169.105 35.5687L168.994 35.9867C168.893 36.316 168.825 36.6547 168.792 36.9977C168.77 37.2897 168.792 37.5377 168.86 37.7397C168.994 38.2897 169.41 38.5657 170.107 38.5657C170.365 38.5657 170.629 38.5147 170.899 38.4137C171.169 38.3127 171.421 38.1387 171.657 37.8907C171.905 37.6437 172.101 37.2907 172.247 36.8287L172.652 35.5987H172.332L172.062 36.3567C171.86 36.9307 171.669 37.3177 171.489 37.5197C171.32 37.7117 171.146 37.8067 170.966 37.8067C170.775 37.8067 170.663 37.7227 170.629 37.5537ZM169.73 33.2137C169.603 33.6247 169.465 34.0157 169.315 34.3847C169.034 35.1047 168.736 35.7227 168.421 36.2397C168.118 36.7447 167.82 37.1377 167.528 37.4197C167.236 37.6887 166.977 37.8237 166.753 37.8237C166.539 37.8237 166.382 37.7227 166.281 37.5207C166.191 37.3067 166.146 36.9867 166.146 36.5597C166.146 35.9527 166.213 35.3347 166.348 34.7057C166.483 34.0657 166.668 33.4527 166.904 32.8687C167.122 32.3206 167.393 31.7954 167.713 31.3007C168.017 30.8287 168.337 30.4577 168.674 30.1877C169.022 29.9177 169.365 29.7837 169.702 29.7837C169.927 29.7837 170.107 29.8627 170.242 30.0197C170.336 30.1217 170.408 30.2697 170.458 30.4657L169.73 33.2137Z" fill="#2F2352"/>
<path d="M159.413 38.3276H157.34L159.362 31.0636C159.464 30.7266 159.497 30.4906 159.464 30.3556C159.43 30.2206 159.329 30.1536 159.16 30.1536C158.947 30.1536 158.75 30.2606 158.57 30.4736C158.39 30.6866 158.205 31.0636 158.014 31.6036L157.727 32.3946H157.407L157.845 31.1306C158.003 30.6806 158.199 30.3336 158.435 30.0856C158.671 29.8276 158.93 29.6476 159.211 29.5466C159.492 29.4456 159.778 29.3946 160.07 29.3946C160.43 29.3946 160.694 29.4676 160.862 29.6146C161.042 29.7606 161.155 29.9516 161.2 30.1876C161.257 30.4419 161.268 30.7044 161.233 30.9626C161.211 31.2326 161.166 31.4966 161.098 31.7546L160.827 32.8116L160.896 32.6316C161.211 31.8336 161.514 31.1986 161.806 30.7266C162.11 30.2436 162.43 29.9006 162.767 29.6986C163.097 29.4979 163.477 29.3927 163.863 29.3946C164.267 29.3946 164.576 29.5126 164.79 29.7486C165.015 29.9846 165.127 30.2766 165.127 30.6256C165.127 30.9056 165.059 31.1706 164.925 31.4176C164.794 31.6494 164.609 31.846 164.385 31.9906C164.172 32.1256 163.925 32.1926 163.644 32.1926C163.363 32.1926 163.138 32.1196 162.969 31.9736C162.812 31.8276 162.733 31.6136 162.733 31.3336C162.733 31.0856 162.79 30.8616 162.902 30.6586C163.01 30.461 163.16 30.2888 163.34 30.1536C163.52 30.0076 163.717 29.9066 163.93 29.8496C163.906 29.8264 163.878 29.8093 163.846 29.7996C163.808 29.7877 163.768 29.782 163.728 29.7826C163.481 29.7826 163.228 29.8726 162.969 30.0526C162.711 30.2206 162.441 30.4966 162.16 30.8786C161.879 31.2606 161.593 31.7656 161.301 32.3946C160.971 33.1384 160.679 33.898 160.424 34.6706C160.297 35.0446 160.169 35.4466 160.041 35.8776L159.413 38.3276Z" fill="#2F2352"/>
<path fill-rule="evenodd" clip-rule="evenodd" d="M153.115 35.7247L153.044 35.9867C152.938 36.3673 152.864 36.7564 152.825 37.1497C152.791 37.5097 152.847 37.8127 152.993 38.0597C153.218 38.3967 153.6 38.5657 154.139 38.5657C154.398 38.5657 154.656 38.5147 154.915 38.4137C155.184 38.3127 155.437 38.1387 155.673 37.8907C155.909 37.6327 156.106 37.2727 156.263 36.8127L156.685 35.5827H156.364L156.111 36.3407C155.909 36.9247 155.713 37.3127 155.522 37.5037C155.331 37.6937 155.145 37.7897 154.965 37.7897C154.819 37.7897 154.724 37.7447 154.679 37.6547C154.644 37.5402 154.632 37.4198 154.645 37.3007C154.667 37.1578 154.701 37.017 154.746 36.8797L156.921 29.3957C156.582 29.4766 156.239 29.5331 155.892 29.5647C155.544 29.5987 155.168 29.6207 154.763 29.6317L154.519 30.5337C154.509 30.3047 154.442 30.0817 154.325 29.8847C154.237 29.7311 154.109 29.6044 153.955 29.5182C153.8 29.432 153.625 29.3897 153.448 29.3957C152.954 29.3957 152.46 29.5477 151.965 29.8507C151.439 30.1813 150.967 30.5907 150.566 31.0647C150.112 31.5816 149.717 32.1466 149.386 32.7497C149.055 33.3545 148.789 33.9932 148.594 34.6547C148.41 35.2499 148.314 35.8687 148.308 36.4917C148.308 37.1217 148.454 37.6267 148.746 38.0087C149.038 38.3797 149.487 38.5647 150.094 38.5647C150.521 38.5647 150.931 38.4417 151.325 38.1947C151.729 37.9467 152.111 37.5367 152.471 36.9647C152.694 36.6197 152.908 36.2067 153.115 35.7247ZM151.662 37.4357C151.403 37.6717 151.173 37.7897 150.971 37.7897C150.802 37.7897 150.673 37.7057 150.583 37.5367C150.504 37.3567 150.465 37.0597 150.465 36.6437C150.465 36.0477 150.532 35.4357 150.667 34.8067C150.802 34.1767 150.982 33.5707 151.207 32.9867C151.443 32.4017 151.701 31.8797 151.982 31.4187C152.263 30.9587 152.544 30.5927 152.825 30.3227C153.117 30.0527 153.392 29.9187 153.651 29.9187C153.92 29.9187 154.111 30.0537 154.224 30.3227C154.336 30.5667 154.365 30.8937 154.311 31.3027L153.813 33.1447L153.87 32.8517C153.69 33.5707 153.476 34.2337 153.229 34.8407C153.014 35.3834 152.755 35.9074 152.454 36.4077C152.184 36.8457 151.92 37.1887 151.662 37.4357ZM146.042 36.8967C145.963 37.1667 145.941 37.3857 145.975 37.5537C146.008 37.7227 146.121 37.8067 146.312 37.8067C146.492 37.8067 146.666 37.7117 146.834 37.5207C147.014 37.3177 147.205 36.9307 147.407 36.3567L147.677 35.5987H147.997L147.593 36.8287C147.447 37.2897 147.25 37.6437 147.003 37.8907C146.793 38.1204 146.533 38.2992 146.244 38.4137C145.991 38.5118 145.723 38.5633 145.452 38.5657C144.756 38.5657 144.34 38.2897 144.205 37.7397C144.134 37.4992 144.111 37.247 144.138 36.9977C144.16 36.7057 144.227 36.3677 144.34 35.9867L144.451 35.5687C144.29 35.9227 144.129 36.2417 143.969 36.5257C143.587 37.2227 143.177 37.7397 142.739 38.0757C142.312 38.3983 141.79 38.5705 141.255 38.5657C140.896 38.5657 140.57 38.4857 140.278 38.3297C139.977 38.1516 139.736 37.8872 139.587 37.5707C139.418 37.2227 139.334 36.7787 139.334 36.2397C139.334 35.7227 139.418 35.1597 139.587 34.5537C139.755 33.9357 139.997 33.3237 140.311 32.7167C140.622 32.1158 141.013 31.5601 141.474 31.0647C141.935 30.5587 142.446 30.1547 143.008 29.8507C143.584 29.5465 144.227 29.3902 144.879 29.3957C145.216 29.3957 145.48 29.4857 145.671 29.6657C145.781 29.7627 145.864 29.8857 145.918 30.0357L146.699 27.0867C146.801 26.7047 146.784 26.4237 146.649 26.2437C146.514 26.0637 146.171 25.9737 145.621 25.9737L145.739 25.6207C146.401 25.6169 147.06 25.5547 147.711 25.4347C148.27 25.3156 148.817 25.1466 149.346 24.9297L146.042 36.8967ZM144.66 34.3847C144.81 34.0147 144.949 33.6247 145.075 33.2137L145.804 30.4657C145.769 30.3016 145.694 30.1486 145.587 30.0197C145.521 29.9422 145.438 29.8808 145.345 29.8399C145.251 29.799 145.15 29.7798 145.048 29.7837C144.711 29.7837 144.368 29.9187 144.02 30.1877C143.682 30.4577 143.362 30.8287 143.059 31.3007C142.738 31.7949 142.467 32.3198 142.25 32.8677C142.01 33.4626 141.824 34.0777 141.694 34.7057C141.561 35.3148 141.493 35.9363 141.491 36.5597C141.491 36.9867 141.536 37.3067 141.626 37.5197C141.727 37.7227 141.885 37.8237 142.098 37.8237C142.323 37.8237 142.581 37.6887 142.873 37.4187C143.166 37.1387 143.463 36.7447 143.767 36.2387C144.117 35.6474 144.416 35.0271 144.66 34.3847Z" fill="#2F2352"/>
<path d="M130.053 38.3275H132.126L132.321 37.5655L132.311 37.6205C132.525 36.8335 132.766 36.0755 133.036 35.3445C133.298 34.6469 133.59 33.9609 133.912 33.2885C134.216 32.6585 134.519 32.1085 134.823 31.6365C135.126 31.1645 135.418 30.7995 135.699 30.5405C135.98 30.2705 136.238 30.1365 136.474 30.1365C136.665 30.1365 136.783 30.2035 136.828 30.3385C136.875 30.4917 136.88 30.6544 136.845 30.8105C136.811 30.9932 136.766 31.1735 136.71 31.3505L135.177 35.9855C135.019 36.4575 134.929 36.8615 134.907 37.1985C134.884 37.5355 134.946 37.8115 135.092 38.0245C135.205 38.1935 135.362 38.3225 135.564 38.4125C135.778 38.5125 136.031 38.5645 136.323 38.5645C136.592 38.5645 136.862 38.5135 137.132 38.4125C137.413 38.3225 137.671 38.1535 137.907 37.9065C138.154 37.6595 138.357 37.2995 138.514 36.8275L138.935 35.5975H138.615L138.345 36.3555C138.132 36.9405 137.93 37.3275 137.739 37.5185C137.559 37.7105 137.385 37.8055 137.216 37.8055C137.036 37.8055 136.924 37.7325 136.879 37.5855C136.834 37.4295 136.862 37.1985 136.963 36.8955L138.615 31.9395C138.761 31.5015 138.834 31.0915 138.834 30.7095C138.845 30.3165 138.739 30.0015 138.514 29.7655C138.3 29.5185 137.918 29.3955 137.368 29.3955C136.952 29.3955 136.553 29.4855 136.171 29.6645C135.789 29.8445 135.418 30.1585 135.059 30.6085C134.699 31.0465 134.328 31.6425 133.946 32.3945C133.692 32.9018 133.46 33.4192 133.249 33.9455L133.811 31.7545C133.879 31.4845 133.929 31.2145 133.963 30.9455C133.997 30.6655 133.985 30.4115 133.929 30.1865C133.875 29.9542 133.737 29.75 133.542 29.6135C133.351 29.4675 133.07 29.3945 132.699 29.3945C132.249 29.3945 131.839 29.5185 131.468 29.7655C131.098 30.0125 130.794 30.4675 130.558 31.1305L130.12 32.3945H130.44L130.727 31.6025C130.929 31.0525 131.114 30.6755 131.283 30.4735C131.463 30.2605 131.659 30.1535 131.873 30.1535C132.03 30.1535 132.126 30.1985 132.16 30.2885C132.204 30.3785 132.216 30.4905 132.193 30.6255C132.168 30.7733 132.134 30.9196 132.092 31.0635L130.053 38.3275Z" fill="#2F2352"/>
<path fill-rule="evenodd" clip-rule="evenodd" d="M125.757 35.9855L125.828 35.7235C125.648 36.1539 125.432 36.5687 125.184 36.9635C124.824 37.5355 124.442 37.9465 124.037 38.1935C123.644 38.4405 123.234 38.5635 122.807 38.5635C122.2 38.5635 121.751 38.3785 121.459 38.0075C121.166 37.6255 121.02 37.1205 121.02 36.4905C121.02 35.9065 121.116 35.2945 121.307 34.6535C121.502 33.992 121.767 33.3533 122.099 32.7485C122.429 32.1452 122.825 31.5801 123.279 31.0635C123.68 30.5896 124.152 30.1801 124.678 29.8495C125.172 29.5465 125.667 29.3945 126.161 29.3945C126.543 29.3945 126.835 29.5575 127.038 29.8845C127.146 30.0515 127.211 30.2675 127.232 30.5325L127.476 29.6305C127.88 29.6195 128.257 29.5975 128.605 29.5635C128.965 29.5295 129.307 29.4735 129.633 29.3945L127.459 36.8795C127.413 37.0167 127.379 37.1575 127.358 37.3005C127.345 37.4196 127.356 37.54 127.392 37.6545C127.437 37.7445 127.532 37.7895 127.678 37.7895C127.858 37.7895 128.043 37.6945 128.234 37.5035C128.425 37.3125 128.622 36.9235 128.824 36.3405L129.077 35.5815H129.397L128.976 36.8115C128.819 37.2725 128.622 37.6315 128.386 37.8915C128.176 38.1206 127.917 38.2991 127.628 38.4135C127.381 38.5125 127.118 38.564 126.852 38.5655C126.313 38.5655 125.931 38.3965 125.706 38.0595C125.56 37.8125 125.504 37.5095 125.538 37.1495C125.577 36.7563 125.65 36.3661 125.757 35.9855ZM123.683 37.7885C123.886 37.7885 124.116 37.6705 124.375 37.4345C124.633 37.1875 124.897 36.8445 125.167 36.4065C125.436 35.9685 125.695 35.4465 125.942 34.8395C126.189 34.2325 126.403 33.5695 126.583 32.8495L126.526 33.1435L127.024 31.3025C127.077 30.8925 127.048 30.5655 126.937 30.3225C126.824 30.0525 126.633 29.9175 126.363 29.9175C126.105 29.9175 125.83 30.0525 125.538 30.3215C125.257 30.5915 124.976 30.9565 124.695 31.4175C124.414 31.8775 124.155 32.4005 123.919 32.9845C123.692 33.5764 123.512 34.1848 123.38 34.8045C123.248 35.4083 123.18 36.0244 123.178 36.6425C123.178 37.0585 123.217 37.3565 123.296 37.5355C123.386 37.7045 123.515 37.7885 123.683 37.7885Z" fill="#2F2352"/>
<path d="M122.188 29.9692L122.239 29.6322H120.231L121.025 26.8682C120.692 26.95 120.354 27.0065 120.014 27.0372C119.666 27.0702 119.289 27.0932 118.885 27.1042L118.16 29.6322H116.626L116.542 29.9692H118.064L116.339 35.9872C116.193 36.4812 116.143 36.9252 116.188 37.3182C116.244 37.7002 116.401 38.0042 116.66 38.2282C116.929 38.4532 117.317 38.5662 117.823 38.5662C118.396 38.5662 118.89 38.4142 119.306 38.1102C119.722 37.8072 120.048 37.3072 120.284 36.6102L120.621 35.5992H120.3L120.048 36.2902C119.845 36.8522 119.621 37.2452 119.373 37.4702C119.137 37.6952 118.901 37.8072 118.665 37.8072C118.572 37.8102 118.48 37.792 118.395 37.7539C118.31 37.7157 118.236 37.6587 118.177 37.5872C118.064 37.4422 118.053 37.2122 118.143 36.8972L120.134 29.9692H122.188ZM116.606 26.2782C116.494 26.5702 116.342 26.9982 116.151 27.5592C115.971 28.1092 115.792 28.8292 115.612 29.7162H115.275C115.308 29.5592 115.331 29.3962 115.342 29.2282C115.363 29.0774 115.374 28.9254 115.376 28.7732C115.376 28.3342 115.286 27.9532 115.106 27.6272C114.933 27.2853 114.655 27.0075 114.314 26.8342C113.966 26.6322 113.516 26.5312 112.966 26.5312C112.37 26.5312 111.864 26.6882 111.449 27.0032C111.033 27.3062 110.825 27.7952 110.825 28.4692C110.825 28.8852 110.92 29.2792 111.111 29.6492C111.314 30.0092 111.567 30.3632 111.87 30.7112C112.185 31.0482 112.516 31.3912 112.864 31.7392C113.213 32.0762 113.539 32.4252 113.842 32.7842C114.145 33.1442 114.393 33.5262 114.584 33.9302C114.786 34.3242 114.887 34.7562 114.887 35.2282C114.887 35.8242 114.741 36.3352 114.449 36.7622C114.164 37.1816 113.789 37.5327 113.353 37.7902C112.895 38.052 112.401 38.2451 111.887 38.3632C111.392 38.4954 110.882 38.5636 110.37 38.5662C109.864 38.5662 109.443 38.5262 109.106 38.4482C108.817 38.3939 108.539 38.2972 108.28 38.1612C108.059 38.0402 107.84 37.9169 107.622 37.7912C107.522 37.7079 107.408 37.6447 107.285 37.6052C107.206 37.5657 107.12 37.5426 107.033 37.5372C106.886 37.5372 106.763 37.6102 106.662 37.7572C106.529 37.9767 106.416 38.2076 106.325 38.4472H105.987C106.265 37.7618 106.496 37.0581 106.679 36.3412C106.813 35.8242 106.965 35.1782 107.134 34.4022H107.471C107.423 34.6254 107.384 34.8502 107.353 35.0762C107.319 35.3012 107.308 35.5262 107.319 35.7512C107.353 36.5372 107.594 37.1442 108.044 37.5712C108.505 37.9982 109.179 38.2112 110.066 38.2112C110.819 38.2112 111.387 38.0542 111.769 37.7402C112.151 37.4142 112.342 36.9422 112.342 36.3242C112.342 35.8522 112.252 35.4242 112.072 35.0432C111.902 34.6469 111.675 34.2776 111.398 33.9472C111.112 33.6053 110.814 33.2737 110.505 32.9532C110.194 32.6326 109.896 32.3007 109.611 31.9582C109.335 31.6178 109.102 31.2443 108.92 30.8462C108.736 30.4206 108.644 29.9608 108.651 29.4972C108.651 28.9362 108.769 28.4472 109.005 28.0312C109.242 27.6254 109.564 27.275 109.948 27.0032C110.341 26.7222 110.78 26.5111 111.246 26.3792C111.698 26.2362 112.17 26.1624 112.645 26.1602C113.252 26.1602 113.752 26.2332 114.145 26.3802C114.539 26.5252 114.876 26.7002 115.157 26.9022L115.477 27.1042C115.578 27.1492 115.657 27.1712 115.713 27.1712C115.87 27.1712 116.056 26.8742 116.269 26.2782H116.606Z" fill="#2F2352"/>
<path fill-rule="evenodd" clip-rule="evenodd" d="M100.337 37.5537C100.303 37.3857 100.326 37.1667 100.405 36.8967L103.708 24.9297C103.179 25.1466 102.632 25.3156 102.073 25.4347C101.5 25.5477 100.843 25.6087 100.101 25.6207L99.9826 25.9747C100.533 25.9747 100.877 26.0647 101.011 26.2447C101.146 26.4247 101.163 26.7047 101.062 27.0867L100.28 30.0357C100.23 29.8934 100.146 29.766 100.034 29.6657C99.8426 29.4857 99.5786 29.3957 99.2416 29.3957C98.5666 29.3957 97.9436 29.5477 97.3706 29.8507C96.7942 30.1656 96.2755 30.5761 95.8366 31.0647C95.3755 31.5598 94.9842 32.1156 94.6736 32.7167C94.3675 33.3016 94.1245 33.9174 93.9486 34.5537C93.7886 35.1017 93.7035 35.6689 93.6956 36.2397C93.6956 36.7787 93.7806 37.2227 93.9486 37.5707C94.1176 37.9077 94.3476 38.1607 94.6396 38.3287C94.9316 38.4867 95.2576 38.5647 95.6176 38.5647C96.1676 38.5647 96.6626 38.4027 97.1006 38.0767C97.5386 37.7397 97.9486 37.2227 98.3306 36.5257C98.4906 36.2417 98.6516 35.9227 98.8126 35.5687L98.7026 35.9867C98.6003 36.3158 98.5323 36.6546 98.4996 36.9977C98.4727 37.247 98.4955 37.4992 98.5666 37.7397C98.7016 38.2897 99.1166 38.5657 99.8146 38.5657C100.073 38.5657 100.337 38.5147 100.607 38.4137C100.877 38.3127 101.129 38.1387 101.365 37.8907C101.613 37.6437 101.809 37.2907 101.955 36.8287L102.36 35.5987H102.04L101.77 36.3567C101.568 36.9307 101.377 37.3177 101.197 37.5197C101.028 37.7117 100.854 37.8067 100.674 37.8067C100.484 37.8067 100.371 37.7227 100.337 37.5537ZM99.4366 33.2137C99.3106 33.6247 99.1726 34.0157 99.0216 34.3847C98.7416 35.1047 98.4436 35.7227 98.1286 36.2397C97.8256 36.7447 97.5276 37.1377 97.2356 37.4197C96.9436 37.6887 96.6856 37.8237 96.4596 37.8237C96.2466 37.8237 96.0896 37.7227 95.9886 37.5207C95.8986 37.3067 95.8536 36.9867 95.8536 36.5597C95.8536 35.9527 95.9206 35.3347 96.0556 34.7057C96.1906 34.0657 96.3756 33.4527 96.6116 32.8687C96.829 32.3205 97.1004 31.7953 97.4216 31.3007C97.7246 30.8287 98.0446 30.4577 98.3816 30.1877C98.7296 29.9177 99.0726 29.7837 99.4096 29.7837C99.6346 29.7837 99.8146 29.8627 99.9496 30.0197C100.044 30.1217 100.116 30.2697 100.166 30.4657L99.4366 33.2137Z" fill="#2F2352"/>
<path d="M86.4854 38.3275H84.4124L86.4524 31.0635C86.4974 30.9065 86.5304 30.7605 86.5524 30.6255C86.5775 30.5125 86.5659 30.3945 86.5194 30.2885C86.4854 30.1985 86.3894 30.1535 86.2324 30.1535C86.0194 30.1535 85.8224 30.2605 85.6424 30.4735C85.4744 30.6755 85.2884 31.0525 85.0864 31.6035L84.8004 32.3945H84.4804L84.9184 31.1305C85.1544 30.4675 85.4584 30.0125 85.8284 29.7655C86.1984 29.5185 86.6084 29.3955 87.0584 29.3955C87.4294 29.3955 87.7104 29.4675 87.9014 29.6135C88.0973 29.7498 88.2355 29.954 88.2894 30.1865C88.3454 30.4115 88.3564 30.6645 88.3234 30.9455C88.289 31.218 88.2383 31.4881 88.1714 31.7545L87.6094 33.9465C87.8474 33.3575 88.0794 32.8415 88.3064 32.3945C88.6884 31.6425 89.0584 31.0465 89.4184 30.6085C89.7784 30.1585 90.1484 29.8445 90.5304 29.6645C90.9134 29.4845 91.3114 29.3945 91.7274 29.3945C92.2774 29.3945 92.6604 29.5185 92.8734 29.7655C93.0984 30.0015 93.2054 30.3155 93.1934 30.7095C93.1934 31.0915 93.1214 31.5015 92.9744 31.9395L91.3234 36.8955C91.2214 37.1985 91.1934 37.4295 91.2384 37.5855C91.2834 37.7325 91.3964 37.8055 91.5764 37.8055C91.7444 37.8055 91.9184 37.7105 92.0984 37.5195C92.2894 37.3275 92.4914 36.9395 92.7054 36.3555L92.9754 35.5975H93.2954L92.8734 36.8275C92.7164 37.2995 92.5134 37.6595 92.2674 37.9075C92.0556 38.1388 91.7886 38.3125 91.4914 38.4125C91.2331 38.5116 90.959 38.5631 90.6824 38.5645C90.3904 38.5645 90.1374 38.5135 89.9244 38.4125C89.7214 38.3225 89.5644 38.1925 89.4524 38.0245C89.3064 37.8115 89.2444 37.5355 89.2664 37.1985C89.2894 36.8615 89.3794 36.4575 89.5364 35.9855L91.0704 31.3505C91.1264 31.1705 91.1714 30.9905 91.2054 30.8105C91.2408 30.6544 91.2349 30.4917 91.1884 30.3385C91.1434 30.2035 91.0254 30.1365 90.8344 30.1365C90.5984 30.1365 90.3394 30.2715 90.0594 30.5405C89.7784 30.7995 89.4854 31.1645 89.1824 31.6365C88.8461 32.1683 88.5422 32.72 88.2724 33.2885C87.9694 33.9185 87.6764 34.6025 87.3954 35.3445C87.1254 36.0745 86.8854 36.8335 86.6714 37.6205L86.6814 37.5655L86.4854 38.3275Z" fill="#2F2352"/>
<path fill-rule="evenodd" clip-rule="evenodd" d="M80.1881 35.7241L80.1181 35.9861C80.0119 36.3668 79.9383 36.7559 79.8981 37.1491C79.8641 37.5091 79.9201 37.8121 80.0661 38.0591C80.2911 38.3961 80.6731 38.5651 81.2131 38.5651C81.5013 38.563 81.786 38.5021 82.0498 38.386C82.3136 38.27 82.5509 38.1012 82.7471 37.8901C82.9831 37.6321 83.1791 37.2721 83.3371 36.8121L83.7571 35.5821H83.4371L83.1851 36.3401C82.9821 36.9241 82.7851 37.3121 82.5951 37.5031C82.4041 37.6931 82.2181 37.7891 82.0391 37.7891C81.8921 37.7891 81.7971 37.7441 81.7521 37.6541C81.7169 37.5396 81.7054 37.4192 81.7181 37.3001C81.7411 37.1541 81.7741 37.0141 81.8201 36.8791L83.9941 29.3951C83.6559 29.476 83.3124 29.5324 82.9661 29.5641C82.6171 29.5981 82.2411 29.6201 81.8361 29.6311L81.5921 30.5331C81.5817 30.3041 81.5151 30.0812 81.3981 29.8841C81.3104 29.7306 81.1824 29.604 81.0281 29.5178C80.8737 29.4317 80.6988 29.3892 80.5221 29.3951C80.0271 29.3951 79.5321 29.5471 79.0381 29.8501C78.5441 30.1541 78.0781 30.5581 77.6391 31.0641C77.1851 31.5807 76.7894 32.1458 76.4591 32.7491C76.1276 33.3539 75.8621 33.9926 75.6671 34.6541C75.4832 35.2493 75.3869 35.8681 75.3811 36.4911C75.3811 37.1211 75.5271 37.6261 75.8191 38.0081C76.1111 38.3791 76.5611 38.5641 77.1671 38.5641C77.5941 38.5641 78.0051 38.4411 78.3971 38.1941C78.8021 37.9461 79.1851 37.5361 79.5441 36.9641C79.7671 36.6191 79.9811 36.2061 80.1881 35.7241ZM78.7351 37.4351C78.4771 37.6711 78.2461 37.7891 78.0441 37.7891C77.8751 37.7891 77.7461 37.7051 77.6561 37.5361C77.5781 37.3561 77.5381 37.0591 77.5381 36.6431C77.5381 36.0471 77.6061 35.4351 77.7411 34.8061C77.8751 34.1761 78.0551 33.5701 78.2801 32.9861C78.5161 32.4011 78.7741 31.8791 79.0551 31.4181C79.3361 30.9581 79.6171 30.5921 79.8981 30.3221C80.1901 30.0521 80.4651 29.9181 80.7241 29.9181C80.9941 29.9181 81.1841 30.0531 81.2971 30.3221C81.4091 30.5661 81.4371 30.8931 81.3841 31.3021L80.8861 33.1441L80.9431 32.8511C80.7631 33.5701 80.5501 34.2331 80.3031 34.8401C80.0551 35.4461 79.7971 35.9691 79.5271 36.4071C79.2571 36.8451 78.9931 37.1881 78.7351 37.4351Z" fill="#2F2352"/>
<path d="M70.874 38.3276H68.801L70.823 31.0636C70.924 30.7266 70.958 30.4906 70.924 30.3556C70.891 30.2206 70.79 30.1536 70.621 30.1536C70.408 30.1536 70.211 30.2606 70.031 30.4736C69.851 30.6866 69.666 31.0636 69.475 31.6036L69.188 32.3946H68.868L69.306 31.1306C69.464 30.6806 69.66 30.3336 69.896 30.0856C70.132 29.8276 70.391 29.6476 70.672 29.5466C70.952 29.4456 71.239 29.3946 71.532 29.3946C71.891 29.3946 72.155 29.4676 72.323 29.6146C72.5017 29.7581 72.6219 29.9618 72.661 30.1876C72.717 30.4236 72.728 30.6816 72.694 30.9626C72.672 31.2326 72.627 31.4966 72.559 31.7546L72.289 32.8116L72.316 32.7386L72.357 32.6316C72.672 31.8336 72.975 31.1986 73.267 30.7266C73.571 30.2436 73.891 29.9006 74.228 29.6986C74.5582 29.4979 74.9376 29.3927 75.324 29.3946C75.728 29.3946 76.037 29.5126 76.251 29.7486C76.475 29.9846 76.588 30.2766 76.588 30.6256C76.588 30.9056 76.52 31.1706 76.385 31.4176C76.2542 31.6494 76.0693 31.846 75.846 31.9906C75.6232 32.128 75.3656 32.1981 75.104 32.1926C74.824 32.1926 74.599 32.1196 74.43 31.9736C74.273 31.8276 74.194 31.6136 74.194 31.3336C74.194 31.0856 74.25 30.8616 74.363 30.6586C74.475 30.4566 74.621 30.2886 74.801 30.1536C74.981 30.0076 75.177 29.9066 75.391 29.8496C75.3673 29.8266 75.3385 29.8095 75.307 29.7996C75.2846 29.7921 75.2615 29.787 75.238 29.7846C75.2213 29.7831 75.2047 29.7824 75.188 29.7826C74.942 29.7826 74.688 29.8726 74.43 30.0526C74.172 30.2206 73.902 30.4966 73.621 30.8786C73.341 31.2606 73.054 31.7656 72.761 32.3946C72.4315 33.1384 72.1391 33.898 71.885 34.6706C71.758 35.0436 71.63 35.4466 71.502 35.8776L70.874 38.3276Z" fill="#2F2352"/>
<path fill-rule="evenodd" clip-rule="evenodd" d="M67.7207 27.0185C67.1587 26.6135 66.2598 26.4115 65.0238 26.4115C64.6418 26.4115 64.2598 26.4175 63.8768 26.4285C63.5068 26.4395 63.0798 26.4455 62.5968 26.4455H61.7538C61.4498 26.4335 61.1637 26.4285 60.8937 26.4285C60.669 26.4186 60.4443 26.4073 60.2198 26.3945L60.1358 26.7315C60.5738 26.7315 60.8718 26.7875 61.0288 26.9005C61.1978 27.0005 61.2758 27.1585 61.2648 27.3725C61.2421 27.6454 61.1969 27.916 61.1297 28.1815L58.9048 36.5415C58.8048 36.9455 58.6917 37.2495 58.5677 37.4515C58.4558 37.6447 58.2757 37.7892 58.0628 37.8565C57.8488 37.9235 57.5508 37.9685 57.1688 37.9905L57.1018 38.3275C57.2917 38.3175 57.5228 38.3115 57.7918 38.3115C58.0618 38.2995 58.3488 38.2945 58.6518 38.2945C59.5 38.2687 60.3489 38.2744 61.1968 38.3115C61.6578 38.3215 62.0798 38.3285 62.4618 38.3285C63.1918 38.3285 63.8828 38.2545 64.5348 38.1085C65.1357 37.9722 65.7105 37.7392 66.2367 37.4185C66.7075 37.1381 67.1059 36.751 67.3998 36.2885C67.6918 35.8385 67.8378 35.3115 67.8378 34.7045C67.8378 34.0185 67.5578 33.4285 66.9958 32.9345C66.4458 32.4395 65.5738 32.1475 64.3828 32.0575C65.1258 31.9508 65.8478 31.7292 66.5228 31.4005C67.1528 31.0745 67.6468 30.6755 68.0068 30.2035C68.3691 29.7554 68.5655 29.1958 68.5628 28.6195C68.5628 27.9455 68.2837 27.4115 67.7207 27.0185ZM62.3408 32.2775L61.2138 36.5415C61.1468 36.8215 61.1018 37.0695 61.0798 37.2825C61.0678 37.4965 61.1237 37.6595 61.2477 37.7725C61.3717 37.8845 61.6018 37.9405 61.9388 37.9405C62.7368 37.9405 63.3887 37.7885 63.8937 37.4855C64.3886 37.1945 64.7828 36.7595 65.0238 36.2385C65.2708 35.6985 65.3938 35.0915 65.3938 34.4185C65.3938 34.0015 65.3208 33.6365 65.1748 33.3225C65.0462 33.0035 64.815 32.7365 64.5178 32.5635C64.2148 32.3725 63.8097 32.2775 63.3037 32.2775H62.3408ZM62.4168 31.9905H63.1868C63.8268 31.9905 64.3717 31.8275 64.8207 31.5015C65.2817 31.1645 65.6308 30.7265 65.8668 30.1875C66.1125 29.6535 66.2388 29.0723 66.2367 28.4845C66.2367 27.9225 66.1248 27.4905 65.8998 27.1865C65.6868 26.8835 65.3098 26.7315 64.7698 26.7315C64.3778 26.7315 64.0968 26.8105 63.9278 26.9675C63.7597 27.1135 63.6138 27.4335 63.4898 27.9275L62.4168 31.9905Z" fill="#2F2352"/>
</svg>
