<svg width="28" height="27" viewBox="0 0 28 27" fill="none" xmlns="http://www.w3.org/2000/svg">
<path d="M19.0027 22.1893L1.0627 9.81427C-0.755304 8.56027 -0.137304 5.94928 2.1297 5.33528L21.1967 0.160282C21.6006 0.0145418 22.0334 -0.0327682 22.4593 0.0222817C22.8851 0.0773318 23.2917 0.233152 23.6453 0.476812C23.9988 0.720472 24.2892 1.04494 24.4922 1.42329C24.6952 1.80164 24.8051 2.22296 24.8127 2.65228L23.6827 20.2013C23.5487 22.2843 20.8207 23.4433 19.0027 22.1893Z" fill="#E9327C"/>
<path d="M13.3144 25.2426L2.74539 4.57363C2.50379 4.10079 2.39748 3.5704 2.43817 3.04097C2.47886 2.51154 2.66498 2.00363 2.97599 1.57326C3.28701 1.14289 3.71084 0.806769 4.20075 0.601969C4.69066 0.397169 5.22761 0.331649 5.75239 0.412639L25.3394 3.43563C25.7903 3.50524 26.2183 3.68089 26.5882 3.94814C26.958 4.2154 27.2591 4.56662 27.4668 4.97293C27.6744 5.37924 27.7827 5.82903 27.7826 6.28533C27.7825 6.74162 27.6741 7.19139 27.4664 7.59763L18.4434 25.2436C18.2011 25.7151 17.8335 26.1107 17.381 26.3868C16.9285 26.663 16.4087 26.809 15.8786 26.8089C15.3485 26.8088 14.8287 26.6626 14.3763 26.3863C13.9239 26.1099 13.5565 25.7142 13.3144 25.2426Z" fill="#1DACE3"/>
<path d="M24.7657 3.34684L15.0017 1.83984L3.01367 5.09484L7.79867 14.4558L19.0037 22.1878C19.2509 22.3565 19.5228 22.4857 19.8097 22.5708L24.0657 14.2478L24.7657 3.34684Z" fill="#001A49"/>
</svg>
