<svg width="125" height="40" viewBox="0 0 125 40" fill="none" xmlns="http://www.w3.org/2000/svg">
<path d="M88.8603 37.2245C89.6193 37.2245 90.0683 36.6495 90.0683 35.7505C90.0683 34.8185 89.5863 34.2765 88.8763 34.2765C88.4703 34.2765 88.1883 34.4565 87.9773 34.7425H87.9673V33.2695H87.5273V37.1425H87.9673V36.7745H87.9773C88.2053 37.0885 88.4813 37.2245 88.8603 37.2245ZM88.8283 36.8555C88.2323 36.8555 87.9393 36.3845 87.9393 35.7555C87.9393 35.1495 88.2213 34.6505 88.8333 34.6505C89.3643 34.6505 89.6193 35.1275 89.6193 35.7555C89.6193 36.3895 89.3643 36.8555 88.8283 36.8555ZM90.8113 38.0695C91.1523 38.0695 91.3693 37.9495 91.5963 37.3695L92.7943 34.3415H92.3283L91.6883 36.0865C91.6023 36.3195 91.5043 36.6335 91.5043 36.6335H91.4943C91.4943 36.6335 91.3903 36.3195 91.3043 36.0865L90.6433 34.3415H90.1663L91.2603 37.0615L91.1523 37.3375C91.0443 37.6085 90.9193 37.6795 90.7353 37.6795C90.6326 37.6847 90.5301 37.6641 90.4373 37.6195H90.4153V38.0095C90.5353 38.0585 90.6433 38.0695 90.8113 38.0695ZM93.9173 37.1425H94.6543V33.2695H93.9173V37.1425ZM96.4563 37.2245C97.3173 37.2245 97.9083 36.5845 97.9083 35.7555C97.9083 34.9265 97.3183 34.2875 96.4563 34.2875C95.5953 34.2875 95.0043 34.9275 95.0043 35.7555C95.0043 36.5855 95.5943 37.2245 96.4563 37.2245ZM96.4563 36.6605C96.0013 36.6605 95.7523 36.2975 95.7523 35.7555C95.7523 35.2145 96.0013 34.8455 96.4563 34.8455C96.9063 34.8455 97.1603 35.2145 97.1603 35.7555C97.1603 36.2975 96.9063 36.6605 96.4563 36.6605ZM99.4753 38.0905C99.8873 38.0905 100.244 37.9935 100.477 37.7765C100.683 37.5865 100.808 37.3215 100.808 36.9315V34.3635H100.098V34.6565H100.087C99.9193 34.4235 99.6653 34.2875 99.3173 34.2875C98.6143 34.2875 98.1153 34.8185 98.1153 35.6475C98.1153 36.4875 98.7223 36.9745 99.3403 36.9745C99.6923 36.9745 99.9033 36.8345 100.065 36.6495H100.082V36.9535C100.082 37.3325 99.8823 37.5335 99.4643 37.5335C99.1233 37.5335 98.9663 37.3975 98.9063 37.2235H98.1753C98.2503 37.7655 98.7163 38.0905 99.4753 38.0905ZM99.4653 36.3845C99.0853 36.3845 98.8353 36.1085 98.8353 35.6365C98.8353 35.1705 99.0853 34.8785 99.4593 34.8785C99.9033 34.8785 100.12 35.2245 100.12 35.6315C100.12 36.0435 99.9313 36.3845 99.4653 36.3845ZM102.599 37.2245C103.46 37.2245 104.051 36.5845 104.051 35.7555C104.051 34.9265 103.46 34.2875 102.599 34.2875C101.737 34.2875 101.147 34.9275 101.147 35.7555C101.147 36.5855 101.737 37.2245 102.599 37.2245ZM102.599 36.6605C102.144 36.6605 101.894 36.2975 101.894 35.7555C101.894 35.2145 102.144 34.8455 102.599 34.8455C103.048 34.8455 103.303 35.2145 103.303 35.7555C103.303 36.2975 103.048 36.6605 102.599 36.6605ZM104.393 37.1425H105.13V34.3635H104.393V37.1425ZM104.393 33.9305H105.13V33.2695H104.393V33.9305ZM105.605 38.0525H106.342V36.8295H106.352C106.51 37.0685 106.764 37.2255 107.154 37.2255C107.869 37.2255 108.357 36.6555 108.357 35.7565C108.357 34.8895 107.886 34.2885 107.149 34.2885C106.989 34.2859 106.83 34.3232 106.687 34.397C106.544 34.4708 106.422 34.5789 106.331 34.7115H106.315V34.3645H105.605V38.0545V38.0525ZM106.997 36.6125C106.558 36.6125 106.325 36.2815 106.325 35.7775C106.325 35.2795 106.51 34.8835 106.97 34.8835C107.425 34.8835 107.609 35.2515 107.609 35.7775C107.609 36.3035 107.371 36.6125 106.997 36.6125ZM109.827 37.2245C110.52 37.2245 110.997 36.8885 110.997 36.3305C110.997 35.6805 110.482 35.5505 110.016 35.4525C109.621 35.3715 109.253 35.3495 109.253 35.1115C109.253 34.9115 109.442 34.8015 109.729 34.8015C110.044 34.8015 110.233 34.9115 110.266 35.2085H110.932C110.878 34.6505 110.472 34.2885 109.74 34.2885C109.106 34.2885 108.608 34.5745 108.608 35.1765C108.608 35.7825 109.095 35.9185 109.594 36.0165C109.973 36.0915 110.325 36.1185 110.325 36.3845C110.325 36.5795 110.141 36.7045 109.816 36.7045C109.486 36.7045 109.258 36.5635 109.209 36.2435H108.527C108.57 36.8335 109.02 37.2245 109.827 37.2245ZM113.795 37.1425V34.3635H113.058V35.9675C113.058 36.3355 112.846 36.5955 112.5 36.5955C112.186 36.5955 112.039 36.4165 112.039 36.0915V34.3635H111.308V36.2165C111.308 36.8235 111.655 37.2185 112.272 37.2185C112.662 37.2185 112.879 37.0725 113.069 36.8185H113.085V37.1425H113.795ZM114.271 37.1425H115.008V35.5295C115.008 35.1605 115.208 34.9225 115.506 34.9225C115.777 34.9225 115.934 35.0855 115.934 35.3995V37.1435H116.671V35.5295C116.671 35.1605 116.861 34.9225 117.17 34.9225C117.441 34.9225 117.598 35.0855 117.598 35.3995V37.1435H118.335V35.2745C118.335 34.6675 118.004 34.2885 117.419 34.2885C117.067 34.2885 116.774 34.4725 116.585 34.7765H116.574C116.508 34.6289 116.399 34.5041 116.262 34.4173C116.126 34.3306 115.966 34.2858 115.804 34.2885C115.642 34.2844 115.481 34.324 115.339 34.4032C115.197 34.4823 115.079 34.5982 114.997 34.7385H114.981V34.3645H114.271V37.1445V37.1425Z" fill="#E5708C"/>
<path d="M118.481 2.14869C118.481 0.965695 119.44 0.00569434 120.623 0.00569434H122.052C122.62 0.00569434 123.165 0.231474 123.567 0.633365C123.969 1.03525 124.195 1.58033 124.195 2.14869C124.195 2.71705 123.969 3.26213 123.567 3.66402C123.165 4.06591 122.62 4.29169 122.052 4.29169H120.623C120.341 4.29169 120.063 4.23625 119.803 4.12855C119.543 4.02084 119.307 3.86297 119.108 3.66396C118.909 3.46495 118.751 3.2287 118.643 2.96871C118.536 2.70871 118.48 2.43007 118.481 2.14869ZM58.4896 14.2897C58.4896 22.1777 52.0956 28.5727 44.2066 28.5727C36.3186 28.5727 29.9236 22.1777 29.9236 14.2897C29.9236 6.39969 36.3186 0.00669434 44.2066 0.00669434C52.0956 0.00669434 58.4896 6.39969 58.4896 14.2897ZM27.1376 14.2187C27.9276 14.2187 28.5736 14.8587 28.4946 15.6447C28.2246 18.3345 27.1968 20.8925 25.5307 23.0213C23.8645 25.1502 21.6285 26.7625 19.0823 27.6708C16.5361 28.5792 13.7845 28.7463 11.1471 28.1528C8.50973 27.5592 6.09494 26.2294 4.1834 24.3179C2.27185 22.4063 0.942035 19.9916 0.348505 17.3542C-0.245025 14.7168 -0.077899 11.9651 0.830461 9.41899C1.73882 6.87284 3.35111 4.63675 5.47996 2.9706C7.6088 1.30445 10.1668 0.276669 12.8566 0.00669434C13.6416 -0.0733057 14.2826 0.574695 14.2826 1.36269V12.7897C14.2826 13.5797 14.9226 14.2187 15.7116 14.2187H27.1376ZM78.4866 31.4297C79.623 31.4297 80.713 31.8811 81.5165 32.6847C82.3201 33.4883 82.7716 34.5782 82.7716 35.7147C82.7716 36.8511 82.3201 37.941 81.5165 38.7446C80.713 39.5482 79.623 39.9997 78.4866 39.9997H71.3456C70.2091 39.9997 69.1192 39.5482 68.3156 38.7446C67.512 37.941 67.0606 36.8511 67.0606 35.7147C67.0606 34.5782 67.512 33.4883 68.3156 32.6847C69.1192 31.8811 70.2091 31.4297 71.3456 31.4297H78.4866ZM74.2016 28.5727C82.0906 28.5727 88.4856 22.1777 88.4856 14.2897C88.489 11.8666 87.8732 9.4829 86.6966 7.36469L89.0566 5.00469C89.3284 4.73273 89.544 4.40988 89.6911 4.05459C89.8382 3.69929 89.9138 3.31851 89.9137 2.93399C89.9136 2.54946 89.8378 2.16871 89.6906 1.81349C89.5433 1.45827 89.3276 1.13553 89.0556 0.863695C88.7836 0.591858 88.4608 0.376252 88.1055 0.229185C87.7502 0.0821186 87.3694 0.00647223 86.9849 0.0065651C86.6004 0.00665796 86.2196 0.0824882 85.8644 0.229727C85.5092 0.376965 85.1864 0.592727 84.9146 0.864695L82.8546 2.92469C80.3694 1.0266 77.3278 0.00066251 74.2006 0.00569434C66.3136 0.00669434 59.9196 6.39969 59.9196 14.2897C59.9196 22.1777 66.3136 28.5727 74.2016 28.5727ZM118.481 14.2897C118.481 22.1777 112.086 28.5727 104.197 28.5727C96.3086 28.5727 89.9136 22.1777 89.9136 14.2897C89.9136 6.39969 96.3086 0.00669434 104.197 0.00669434C112.086 0.00669434 118.481 6.40069 118.481 14.2897Z" fill="url(#paint0_linear_4033_15370)"/>
<defs>
<linearGradient id="paint0_linear_4033_15370" x1="-0.000401805" y1="15.9997" x2="119" y2="15.9997" gradientUnits="userSpaceOnUse">
<stop stop-color="#64C2DB"/>
<stop offset="0.307" stop-color="#7476ED"/>
<stop offset="0.604" stop-color="#C994DF"/>
<stop offset="1" stop-color="#E56F8C"/>
</linearGradient>
</defs>
</svg>
