<svg width="93" height="20" viewBox="0 0 93 20" fill="none" xmlns="http://www.w3.org/2000/svg">
<path d="M43.4534 3.34087C44.3698 3.34087 45.1143 2.59627 45.1143 1.66087C45.1143 0.725451 44.3698 0 43.4534 0C42.518 0 41.7734 0.725451 41.7734 1.66087C41.7734 2.59627 42.518 3.34087 43.4534 3.34087ZM41.9643 14.3754H44.9234V4.82997H41.9643V14.3754Z" fill="#FB8351"/>
<path d="M46.6445 18.9562H49.5464V13.4198C50.1 14.1453 51.36 14.6416 52.6773 14.6416C55.5218 14.6416 57.24 12.4653 57.164 9.44894C57.087 6.37524 55.3118 4.52344 52.6582 4.52344C51.3027 4.52344 50.0236 5.11524 49.4891 5.99344L49.3364 4.82894H46.6445V18.9562ZM49.6036 9.60164C49.6036 8.16984 50.5582 7.21534 51.9327 7.21534C53.3264 7.21534 54.2046 8.18894 54.2046 9.60164C54.2046 11.0143 53.3264 11.988 51.9327 11.988C50.5582 11.988 49.6036 11.0334 49.6036 9.60164Z" fill="#FB8351"/>
<path d="M57.478 11.358C57.554 13.2862 59.082 14.6225 61.487 14.6225C63.797 14.6225 65.401 13.4007 65.401 11.4343C65.401 10.0216 64.561 9.08624 62.995 8.70434L61.296 8.28434C60.685 8.13164 60.303 7.97894 60.303 7.48254C60.303 6.98624 60.704 6.66164 61.296 6.66164C61.964 6.66164 62.403 7.10074 62.384 7.74984H65.038C64.962 5.76434 63.453 4.52344 61.353 4.52344C59.234 4.52344 57.65 5.78344 57.65 7.69254C57.65 8.97164 58.356 10.0216 60.246 10.518L61.926 10.9571C62.422 11.0907 62.632 11.3198 62.632 11.6443C62.632 12.1216 62.193 12.4271 61.449 12.4271C60.59 12.4271 60.132 12.0262 60.132 11.358H57.478Z" fill="#FB8351"/>
<path d="M69.902 14.6217C71.066 14.6217 72.231 14.0872 72.823 13.3045L73.014 14.3735H75.782V4.82812H72.842V9.79173C72.842 11.2235 72.422 12.0063 71.066 12.0063C70.016 12.0063 69.329 11.529 69.329 9.75352V4.82812H66.389V10.8226C66.389 13.0945 67.649 14.6217 69.902 14.6217Z" fill="#FB8351"/>
<path d="M80.443 14.3739V9.16211C80.443 7.55851 81.302 7.10031 82.142 7.10031C83.078 7.10031 83.689 7.67301 83.689 8.85671V14.3739H86.59V9.16211C86.59 7.53941 87.43 7.08121 88.27 7.08121C89.206 7.08121 89.836 7.65391 89.836 8.85671V14.3739H92.699V8.13121C92.699 5.95481 91.554 4.50391 89.091 4.50391C87.717 4.50391 86.59 5.17211 86.094 6.20301C85.521 5.17211 84.529 4.50391 82.944 4.50391C81.894 4.50391 80.92 4.98121 80.348 5.74481L80.233 4.82851H77.484V14.3739H80.443Z" fill="#FB8351"/>
<path d="M3.1309 0.25H0V14.3774H8.6673V11.6092H3.1309V0.25Z" fill="#333237"/>
<path d="M8.9668 9.58697C8.9668 12.6033 10.9905 14.6079 14.045 14.6079C17.0805 14.6079 19.1041 12.6033 19.1041 9.58697C19.1041 6.57057 17.0805 4.54688 14.045 4.54688C10.9905 4.54688 8.9668 6.57057 8.9668 9.58697ZM11.9259 9.56787C11.9259 8.13597 12.7659 7.18147 14.045 7.18147C15.305 7.18147 16.145 8.13597 16.145 9.56787C16.145 11.0188 15.305 11.9733 14.045 11.9733C12.7659 11.9733 11.9259 11.0188 11.9259 9.56787Z" fill="#333237"/>
<path d="M19.5772 9.43321C19.5772 12.316 21.4482 14.2632 24.1018 14.2632C25.3809 14.2632 26.4882 13.8051 27.0418 13.0605V14.3778C27.0418 15.6951 26.2209 16.5732 24.77 16.5732C23.4718 16.5732 22.5745 15.9623 22.5172 14.8741H19.5391C19.8063 17.4896 21.83 19.246 24.5982 19.246C27.8627 19.246 29.9245 17.1269 29.9245 13.7669V4.83231H27.2709L27.1182 5.80601C26.5836 5.02321 25.4573 4.50781 24.1591 4.50781C21.4863 4.50781 19.5772 6.51231 19.5772 9.43321ZM22.5554 9.35691C22.5554 7.98231 23.4718 7.06601 24.6363 7.06601C25.9918 7.06601 26.9845 7.96321 26.9845 9.35691C26.9845 10.7505 26.0109 11.705 24.6554 11.705C23.4909 11.705 22.5554 10.7505 22.5554 9.35691Z" fill="#333237"/>
<path d="M30.7812 9.58697C30.7812 12.6033 32.8048 14.6079 35.8594 14.6079C38.8948 14.6079 40.9185 12.6033 40.9185 9.58697C40.9185 6.57057 38.8948 4.54688 35.8594 4.54688C32.8048 4.54688 30.7812 6.57057 30.7812 9.58697ZM33.7403 9.56787C33.7403 8.13597 34.5803 7.18147 35.8594 7.18147C37.1194 7.18147 37.9594 8.13597 37.9594 9.56787C37.9594 11.0188 37.1194 11.9733 35.8594 11.9733C34.5803 11.9733 33.7403 11.0188 33.7403 9.56787Z" fill="#333237"/>
</svg>
