<svg width="155" height="40" viewBox="0 0 155 40" fill="none" xmlns="http://www.w3.org/2000/svg">
<g clip-path="url(#clip0_4033_15353)">
<path d="M0 20C0 10.5719 0 5.85786 2.92893 2.92893C5.85786 0 10.5719 0 20 0C29.4281 0 34.1421 0 37.0711 2.92893C40 5.85786 40 10.5719 40 20C40 29.4281 40 34.1421 37.0711 37.0711C34.1421 40 29.4281 40 20 40C10.5719 40 5.85786 40 2.92893 37.0711C0 34.1421 0 29.4281 0 20Z" fill="#243A5A"/>
<path d="M24.0007 26C24.553 26 25.0108 26.4521 24.9011 26.9934C24.7072 27.9494 24.2362 28.8355 23.5362 29.5355C22.5986 30.4732 21.3268 31 20.0007 31C18.6746 31 17.4029 30.4732 16.4652 29.5355C15.7652 28.8355 15.2942 27.9494 15.1004 26.9934C14.9906 26.4521 15.4484 26 16.0007 26H24.0007Z" fill="#2DF8BB"/>
<path d="M26.1027 17.7765C25.5692 17.9194 25.2425 18.4775 25.513 18.959C25.7977 19.4658 26.1915 19.9081 26.6706 20.2514C27.4228 20.7904 28.3386 21.052 29.2621 20.9914C30.1855 20.9309 31.0594 20.5521 31.7348 19.9195C32.4103 19.2869 32.8454 18.4396 32.9662 17.5221C33.087 16.6046 32.886 15.6736 32.3973 14.8877C31.9086 14.1019 31.1625 13.5098 30.2862 13.2123C29.4099 12.9148 28.4576 12.9304 27.5915 13.2564C27.0399 13.464 26.5451 13.7893 26.1389 14.2051C25.753 14.6002 25.9241 15.2239 26.4024 15.5L26.9097 15.7929C27.6812 16.2384 27.5291 17.3943 26.6685 17.6249L26.1027 17.7765Z" fill="#2DF8BB"/>
<path d="M13.8977 17.7765C14.4312 17.9194 14.7579 18.4775 14.4874 18.959C14.2027 19.4658 13.8089 19.9081 13.3299 20.2514C12.5777 20.7904 11.6618 21.052 10.7384 20.9914C9.81496 20.9309 8.94107 20.5521 8.26564 19.9195C7.59021 19.2869 7.15502 18.4396 7.03423 17.5221C6.91344 16.6046 7.11451 15.6736 7.6032 14.8877C8.09188 14.1019 8.83794 13.5098 9.71425 13.2123C10.5905 12.9148 11.5429 12.9304 12.409 13.2564C12.9605 13.464 13.4554 13.7893 13.8616 14.2051C14.2475 14.6002 14.0763 15.2239 13.598 15.5L13.0907 15.7929C12.3192 16.2384 12.4714 17.3943 13.3319 17.6249L13.8977 17.7765Z" fill="#2DF8BB"/>
<path d="M51.5821 9.27734H48V25.4406H57.9164V22.2735H51.5821V9.27734Z" fill="#243A5A"/>
<path d="M58.2578 19.9578C58.2578 23.4089 60.5731 25.7023 64.0678 25.7023C67.5407 25.7023 69.856 23.4089 69.856 19.9578C69.856 16.5067 67.5407 14.1914 64.0678 14.1914C60.5731 14.1914 58.2578 16.5067 58.2578 19.9578ZM61.6433 19.9359C61.6433 18.2978 62.6044 17.2057 64.0678 17.2057C65.5094 17.2057 66.4705 18.2978 66.4705 19.9359C66.4705 21.596 65.5094 22.6881 64.0678 22.6881C62.6044 22.6881 61.6433 21.596 61.6433 19.9359Z" fill="#243A5A"/>
<path d="M70.3972 19.7837C70.3972 23.0818 72.5378 25.3097 75.5738 25.3097C77.0373 25.3097 78.3041 24.7855 78.9375 23.9337V25.4408C78.9375 26.9479 77.9983 27.9526 76.3383 27.9526C74.853 27.9526 73.8264 27.2537 73.7609 26.0087H70.3535C70.6593 29.0011 72.9746 31.0105 76.1417 31.0105C79.8767 31.0105 82.2357 28.5861 82.2357 24.7418V14.5197H79.1996L79.0249 15.6336C78.4133 14.7381 77.1246 14.1484 75.6394 14.1484C72.5814 14.1484 70.3972 16.4418 70.3972 19.7837ZM73.8046 19.6963C73.8046 18.1236 74.853 17.0752 76.1854 17.0752C77.7362 17.0752 78.872 18.1018 78.872 19.6963C78.872 21.2908 77.758 22.3829 76.2072 22.3829C74.8749 22.3829 73.8046 21.2908 73.8046 19.6963Z" fill="#243A5A"/>
<path d="M83.2168 19.9578C83.2168 23.4089 85.5321 25.7023 89.0269 25.7023C92.4998 25.7023 94.815 23.4089 94.815 19.9578C94.815 16.5067 92.4998 14.1914 89.0269 14.1914C85.5321 14.1914 83.2168 16.5067 83.2168 19.9578ZM86.6024 19.9359C86.6024 18.2978 87.5634 17.2057 89.0269 17.2057C90.4684 17.2057 91.4295 18.2978 91.4295 19.9359C91.4295 21.596 90.4684 22.6881 89.0269 22.6881C87.5634 22.6881 86.6024 21.596 86.6024 19.9359Z" fill="#243A5A"/>
<path d="M97.7151 12.8146C98.7635 12.8146 99.6154 11.9627 99.6154 10.8925C99.6154 9.82219 98.7635 8.99219 97.7151 8.99219C96.6448 8.99219 95.793 9.82219 95.793 10.8925C95.793 11.9627 96.6448 12.8146 97.7151 12.8146ZM96.0114 25.4394H99.397V14.5183H96.0114V25.4394Z" fill="#243A5A"/>
<path d="M101.367 30.6807H104.687V24.3465C105.32 25.1765 106.762 25.7444 108.269 25.7444C111.523 25.7444 113.489 23.2544 113.402 19.8033C113.314 16.2867 111.283 14.168 108.247 14.168C106.696 14.168 105.233 14.8451 104.621 15.8499L104.446 14.5175H101.367V30.6807ZM104.752 19.978C104.752 18.3399 105.844 17.2478 107.417 17.2478C109.011 17.2478 110.016 18.3617 110.016 19.978C110.016 21.5944 109.011 22.7083 107.417 22.7083C105.844 22.7083 104.752 21.6162 104.752 19.978Z" fill="#243A5A"/>
<path d="M113.762 21.9875C113.849 24.1936 115.597 25.7225 118.349 25.7225C120.992 25.7225 122.827 24.3246 122.827 22.0749C122.827 20.4586 121.866 19.3883 120.074 18.9514L118.131 18.4709C117.432 18.2962 116.995 18.1214 116.995 17.5535C116.995 16.9856 117.453 16.6143 118.131 16.6143C118.895 16.6143 119.397 17.1167 119.376 17.8593H122.412C122.324 15.5877 120.599 14.168 118.196 14.168C115.772 14.168 113.959 15.6096 113.959 17.7938C113.959 19.2572 114.767 20.4586 116.929 21.0265L118.851 21.5288C119.419 21.6817 119.659 21.9438 119.659 22.3151C119.659 22.8612 119.157 23.2107 118.305 23.2107C117.322 23.2107 116.798 22.752 116.798 21.9875H113.762Z" fill="#243A5A"/>
<path d="M127.974 25.7245C129.307 25.7245 130.639 25.1129 131.316 24.2174L131.535 25.4406H134.702V14.5195H131.338V20.1985C131.338 21.8366 130.858 22.7321 129.307 22.7321C128.105 22.7321 127.319 22.1861 127.319 20.1548V14.5195H123.955V21.3779C123.955 23.9772 125.397 25.7245 127.974 25.7245Z" fill="#243A5A"/>
<path d="M140.036 25.4408V19.4779C140.036 17.6431 141.019 17.1189 141.98 17.1189C143.05 17.1189 143.749 17.7742 143.749 19.1284V25.4408H147.069V19.4779C147.069 17.6213 148.03 17.0971 148.991 17.0971C150.061 17.0971 150.782 17.7523 150.782 19.1284V25.4408H154.059V18.2984C154.059 15.8084 152.748 14.1484 149.93 14.1484C148.358 14.1484 147.069 14.9128 146.501 16.0923C145.846 14.9128 144.71 14.1484 142.897 14.1484C141.696 14.1484 140.582 14.6944 139.927 15.5681L139.796 14.5197H136.65V25.4408H140.036Z" fill="#243A5A"/>
</g>
<defs>
<clipPath id="clip0_4033_15353">
<rect width="154.059" height="40" fill="white"/>
</clipPath>
</defs>
</svg>
