<svg width="40" height="40" viewBox="0 0 40 40" fill="none" xmlns="http://www.w3.org/2000/svg">
<path fill-rule="evenodd" clip-rule="evenodd" d="M0 2.51572C0 1.12633 1.1386 0 2.5433 0H6.9739C7.9736 0 8.9425 0.342699 9.7155 0.969757L11.0633 2.06304L11.097 2.09345C11.1281 2.08307 11.1592 2.07293 11.1904 2.06304C13.622 1.29265 16.5722 1.14614 19.5833 1.14614C22.5944 1.14614 25.5446 1.29265 27.9762 2.06304C28.0074 2.07293 28.0385 2.08307 28.0696 2.09345L28.1033 2.06304L29.4511 0.969757C30.2241 0.342699 31.193 0 32.1927 0H36.6233C38.028 0 39.1666 1.12633 39.1666 2.51572V4.0709C39.1666 5.27415 38.6542 6.42174 37.755 7.23214L36.6677 8.21213C36.1369 8.69055 35.4998 9.03873 34.8078 9.22855L34.5506 9.29911C35.5581 11.6771 36.1147 14.2189 36.1147 16.2751C36.1147 24.5465 30.9408 28.1188 26.382 31.2664C22.7919 33.7452 19.5833 35.9605 19.5833 40.0001C19.5833 35.9605 16.3747 33.7452 12.7846 31.2664C8.2258 28.1188 3.0519 24.5465 3.0519 16.2751C3.0519 14.2189 3.6085 11.6771 4.616 9.29911L4.3588 9.22855C3.6668 9.03873 3.0297 8.69055 2.4989 8.21213L1.4116 7.23214C0.512398 6.42174 0 5.27415 0 4.0709V2.51572ZM22.8896 23.0373C22.8896 23.4325 22.7154 23.8114 22.4054 24.0909C22.0954 24.3703 21.6749 24.5273 21.2364 24.5273C20.8579 24.5273 20.4927 24.4102 20.2005 24.1984C20.6979 25.5154 21.9708 26.7633 23.9069 24.7565C25.6161 22.8918 23.8309 18.9589 22.0917 16.6251C21.512 15.8472 20.5603 15.4728 19.5833 15.4728C18.6063 15.4728 17.6546 15.8472 17.0749 16.6251C15.3357 18.9589 13.5505 22.8918 15.2597 24.7565C17.1958 26.7633 18.4687 25.5154 18.9661 24.1984C18.6739 24.4102 18.3087 24.5273 17.9302 24.5273C17.4917 24.5273 17.0712 24.3703 16.7612 24.0909C16.4512 23.8114 16.277 23.4325 16.277 23.0373H22.8896ZM13.2526 11.3952H8.6472L12.2767 14.2699C13.0754 14.9024 14.2428 14.7002 14.737 13.8437C15.361 12.7623 14.5322 11.3952 13.2526 11.3952ZM25.914 11.3952H30.5194L26.8899 14.2699C26.0912 14.9024 24.9238 14.7002 24.4296 13.8437C23.8056 12.7623 24.6344 11.3952 25.914 11.3952Z" fill="#72B800"/>
</svg>
