<svg width="19" height="15" viewBox="0 0 19 15" fill="none" xmlns="http://www.w3.org/2000/svg">
<path d="M12.8747 0.0965034V0.0932617H13.7187L14.0271 0.154854C14.2327 0.19484 14.4193 0.247242 14.5871 0.312075C14.7548 0.376909 14.9171 0.452554 15.074 0.538993C15.2309 0.625432 15.3732 0.713509 15.5009 0.80319C15.6275 0.891801 15.7411 0.98581 15.8417 1.08522C15.9412 1.18571 16.0965 1.21164 16.3075 1.16302C16.5185 1.11439 16.7458 1.04685 16.9892 0.960412C17.2327 0.873972 17.4735 0.776722 17.7115 0.66866C17.9496 0.560599 18.0946 0.491989 18.1465 0.462813C18.1974 0.432569 18.2244 0.41636 18.2277 0.414188L18.2309 0.409326L18.2471 0.401221L18.2633 0.393117L18.2796 0.385013L18.2958 0.376909L18.2991 0.372046L18.3039 0.368805L18.3088 0.365563L18.312 0.3607L18.3283 0.355838L18.3445 0.352596L18.3413 0.376909L18.3364 0.401221L18.3283 0.425534L18.3202 0.449847L18.312 0.466055L18.3039 0.482264L18.2958 0.506576C18.2904 0.522785 18.285 0.54439 18.2796 0.57141C18.2742 0.598429 18.2228 0.706474 18.1254 0.895578C18.028 1.08468 17.9063 1.27648 17.7602 1.47098C17.6141 1.66548 17.4832 1.81242 17.3674 1.91185C17.2506 2.01234 17.1732 2.08257 17.1353 2.12255C17.0974 2.16361 17.0515 2.20142 16.9973 2.23601L16.9162 2.2895L16.9 2.29761L16.8837 2.30571L16.8805 2.31057L16.8756 2.31381L16.8707 2.31706L16.8675 2.32192L16.8513 2.33002L16.835 2.33813L16.8318 2.34299L16.8269 2.34623L16.822 2.34947L16.8188 2.35433L16.8156 2.3592L16.8107 2.36244L16.8058 2.36568L16.8026 2.37054H16.8837L17.3382 2.27329C17.6412 2.20846 17.9306 2.13012 18.2065 2.03827L18.6448 1.8924L18.6935 1.87619L18.7178 1.86808L18.734 1.85998L18.7503 1.85187L18.7665 1.84377L18.7827 1.83567L18.8152 1.8308L18.8477 1.82756V1.85998L18.8395 1.86322L18.8314 1.86808L18.8282 1.87294L18.8233 1.87619L18.8184 1.87943L18.8152 1.88429L18.812 1.88915L18.8071 1.8924L18.8022 1.89564L18.799 1.9005L18.7957 1.90536L18.7908 1.9086L18.7827 1.92481L18.7746 1.94102L18.7697 1.94426C18.7676 1.9475 18.6989 2.03934 18.5636 2.2198C18.4284 2.40134 18.3553 2.49318 18.3445 2.49535C18.3337 2.49859 18.3185 2.5148 18.2991 2.54397C18.2807 2.57422 18.166 2.69471 17.955 2.90542C17.744 3.11613 17.5373 3.3036 17.335 3.46785C17.1315 3.63318 17.0287 3.83632 17.0266 4.07729C17.0233 4.31717 17.0109 4.5884 16.9892 4.89095C16.9676 5.19351 16.927 5.52037 16.8675 5.87156C16.808 6.22275 16.716 6.61985 16.5916 7.06288C16.4671 7.5059 16.3156 7.93813 16.1371 8.35955C15.9586 8.78097 15.7719 9.15916 15.5771 9.49414C15.3824 9.82912 15.2038 10.1128 15.0415 10.3451C14.8792 10.5774 14.7142 10.7962 14.5465 11.0015C14.3788 11.2068 14.1667 11.4381 13.9103 11.6952C13.6527 11.9513 13.5121 12.0918 13.4882 12.1167C13.4634 12.1404 13.3573 12.229 13.1701 12.3825C12.984 12.537 12.7838 12.6915 12.5696 12.846C12.3564 12.9995 12.1606 13.1275 11.982 13.2302C11.8035 13.3328 11.5882 13.4501 11.336 13.5819C11.085 13.7148 10.8134 13.838 10.5212 13.9515C10.2291 14.0649 9.9207 14.1703 9.59608 14.2675C9.27146 14.3648 8.95767 14.4404 8.65469 14.4944C8.35172 14.5485 8.00817 14.5944 7.62403 14.6322L7.04784 14.6889V14.697H5.99283V14.6889L5.85487 14.6808C5.76291 14.6754 5.68716 14.67 5.62764 14.6646C5.56814 14.6592 5.3436 14.6295 4.95406 14.5755C4.56452 14.5215 4.25884 14.4674 4.03702 14.4134C3.81521 14.3594 3.48517 14.2567 3.04693 14.1054C2.6087 13.9542 2.23377 13.8012 1.92214 13.6467C1.61159 13.4933 1.41682 13.396 1.33783 13.355C1.25992 13.315 1.17227 13.2653 1.07489 13.2059L0.92881 13.1167L0.925581 13.1119L0.920695 13.1086L0.915826 13.1054L0.91258 13.1005L0.896349 13.0924L0.880118 13.0843L0.876888 13.0794L0.872003 13.0762L0.867133 13.073L0.863887 13.0681L0.860657 13.0632L0.855772 13.06H0.847656V13.0276L0.863887 13.0308L0.880118 13.0357L0.953157 13.0438C1.00185 13.0492 1.13441 13.0573 1.35081 13.0681C1.56723 13.0789 1.79716 13.0789 2.04062 13.0681C2.28409 13.0573 2.53297 13.033 2.78724 12.9952C3.04153 12.9573 3.3418 12.8925 3.68805 12.8007C4.03432 12.7088 4.35245 12.5997 4.64244 12.4732C4.93135 12.3457 5.13693 12.2507 5.25921 12.188C5.38039 12.1264 5.56543 12.0118 5.81429 11.8444L6.1876 11.5931L6.19085 11.5883L6.19572 11.585L6.2006 11.5818L6.20383 11.5769L6.20708 11.5721L6.21195 11.5688L6.21683 11.5656L6.22006 11.5607L6.23629 11.5558L6.25253 11.5526L6.25577 11.5364L6.26064 11.5202L6.26553 11.5169L6.26876 11.5121L6.13891 11.504C6.05235 11.4986 5.96849 11.4932 5.88733 11.4878C5.80618 11.4824 5.67904 11.4581 5.50591 11.4148C5.33279 11.3716 5.14613 11.3068 4.94594 11.2203C4.74577 11.1339 4.551 11.0312 4.36163 10.9124C4.17228 10.7935 4.03539 10.6946 3.95099 10.6158C3.86768 10.5379 3.75947 10.4277 3.62638 10.2851C3.49437 10.1414 3.37967 9.99389 3.28228 9.84262C3.1849 9.69135 3.09185 9.51681 3.00313 9.31909L2.8684 9.02409L2.86028 8.99978L2.85216 8.97547L2.8473 8.95926L2.84405 8.94305L2.8684 8.94629L2.89274 8.95116L3.07128 8.97547C3.19032 8.99168 3.37697 8.99708 3.63125 8.99168C3.88553 8.98628 4.06136 8.97547 4.15875 8.95926C4.25613 8.94305 4.31565 8.93224 4.33729 8.92684L4.36975 8.91874L4.41033 8.91064L4.4509 8.90253L4.45415 8.89767L4.45902 8.89443L4.4639 8.89119L4.46713 8.88632L4.43467 8.87822L4.40221 8.87012L4.36975 8.86201L4.33729 8.85391L4.30482 8.8458C4.28319 8.8404 4.24532 8.82959 4.19121 8.81339C4.13711 8.79718 3.99103 8.73774 3.75298 8.63509C3.51493 8.53244 3.32557 8.43249 3.1849 8.33524C3.04388 8.23771 2.90941 8.13104 2.78237 8.01593C2.65577 7.89923 2.51674 7.74903 2.36524 7.56534C2.21376 7.38165 2.07851 7.16823 1.95947 6.92511C1.84045 6.68198 1.75118 6.44966 1.69166 6.22814C1.63238 6.00793 1.59327 5.78278 1.57481 5.5555L1.54558 5.21512L1.56181 5.21836L1.57804 5.22322L1.59427 5.23133L1.61051 5.23943L1.62674 5.24754L1.64297 5.25564L1.89455 5.3691C2.06227 5.44474 2.27057 5.50958 2.51943 5.5636C2.76832 5.61762 2.91709 5.64735 2.96578 5.65275L3.03882 5.66085H3.1849L3.18167 5.65599L3.17678 5.65275L3.17191 5.6495L3.16867 5.64464L3.16544 5.63978L3.16055 5.63654L3.15568 5.6333L3.15244 5.62843L3.1362 5.62033L3.11997 5.61222L3.11674 5.60736L3.11186 5.60412L3.10699 5.60088L3.10374 5.59602L3.08751 5.58791L3.07128 5.57981L3.06805 5.57495C3.06481 5.57277 3.01827 5.5382 2.92845 5.47121C2.83972 5.40314 2.74666 5.31508 2.64928 5.20701C2.55189 5.09895 2.45451 4.98549 2.35712 4.86664C2.25956 4.74751 2.17266 4.62005 2.09743 4.48574C2.0217 4.35068 1.94161 4.17885 1.85721 3.97031C1.7739 3.76285 1.7106 3.55376 1.66731 3.34305C1.62404 3.13234 1.5997 2.92434 1.59427 2.71902C1.58887 2.51371 1.59427 2.33813 1.61051 2.19225C1.62674 2.04637 1.6592 1.88158 1.70789 1.69789C1.75658 1.5142 1.82693 1.3197 1.91889 1.11439L2.05685 0.806432L2.06497 0.782119L2.07308 0.757806L2.07797 0.754565L2.0812 0.749702L2.08445 0.74484L2.08932 0.741598L2.0942 0.74484L2.09743 0.749702L2.10068 0.754565L2.10555 0.757806L2.11043 0.761048L2.11366 0.765911L2.11691 0.770773L2.12178 0.774015L2.12989 0.790223L2.13801 0.806432L2.14289 0.809673L2.14612 0.814536L2.36524 1.05766C2.51132 1.21975 2.68445 1.40075 2.88463 1.60064C3.08482 1.80054 3.19572 1.90428 3.21736 1.91185C3.23901 1.92048 3.26605 1.94533 3.29851 1.9864C3.33097 2.02639 3.43919 2.12202 3.62313 2.27329C3.80709 2.42457 4.04784 2.60017 4.3454 2.80007C4.64298 2.99996 4.973 3.19717 5.33548 3.39167C5.69798 3.58617 6.08752 3.76176 6.5041 3.91845C6.9207 4.07513 7.21286 4.17778 7.38057 4.22641C7.5483 4.27503 7.83503 4.33716 8.2408 4.4128C8.64657 4.48845 8.95227 4.53707 9.15785 4.55868C9.36344 4.58028 9.50411 4.59272 9.57985 4.59596L9.69346 4.5992L9.69023 4.57489L9.68535 4.55057L9.65289 4.34797C9.63125 4.2129 9.62042 4.0238 9.62042 3.78067C9.62042 3.53755 9.63937 3.31334 9.67723 3.10803C9.71512 2.90271 9.77192 2.69471 9.84766 2.484C9.92341 2.27329 9.99753 2.10417 10.07 1.97668C10.1436 1.85025 10.2399 1.706 10.3589 1.54391C10.478 1.38183 10.6322 1.21435 10.8215 1.04145C11.0109 0.868559 11.2273 0.714579 11.4707 0.579514C11.7142 0.444449 11.9387 0.341785 12.1443 0.271554C12.3499 0.201323 12.5231 0.155389 12.6637 0.133783C12.8044 0.112177 12.8747 0.0997451 12.8747 0.0965034Z" fill="#FBFBFB"/>
</svg>
