<svg width="64" height="64" viewBox="0 0 64 64" fill="none" xmlns="http://www.w3.org/2000/svg">
<path d="M40.5495 2.543C40.7539 1.83896 40.3492 1.0997 39.6373 0.924719C32.4607 -0.83926 24.8786 -0.0671938 18.1876 3.13447C11.0968 6.5275 5.50289 12.4118 2.47284 19.6652C-0.557221 26.9186 -0.811438 35.0336 1.75867 42.4624C4.32877 49.8912 9.54337 56.1142 16.4079 59.9444C23.2725 63.7746 31.3068 64.9441 38.9784 63.2298C46.6501 61.5156 53.4224 57.0375 58.0037 50.6496C62.585 44.2618 64.6548 36.4111 63.8183 28.5949C63.029 21.2195 59.7042 14.3617 54.4341 9.18083C53.9113 8.66689 53.0696 8.71077 52.5778 9.2544C52.086 9.79804 52.1304 10.6353 52.6512 11.1512C57.4387 15.8931 60.4587 22.1505 61.1786 28.8774C61.9457 36.0452 60.0476 43.2445 55.8464 49.1024C51.6451 54.9603 45.4347 59.0669 38.3995 60.6389C31.3643 62.211 23.9966 61.1385 17.7015 57.6261C11.4064 54.1136 6.62442 48.4069 4.26754 41.5944C1.91065 34.7819 2.14378 27.3402 4.92246 20.6885C7.70114 14.0369 12.8309 8.64074 19.3335 5.5292C25.4362 2.60905 32.3472 1.89287 38.8968 3.47671C39.6093 3.64902 40.3452 3.24704 40.5495 2.543Z" fill="#F5A623"/>
<path d="M41.6016 2.78076C41.8161 2.12826 42.5198 1.77079 43.1635 2.0104C43.8072 2.25 44.1059 2.98064 43.8415 3.61452L43.7372 3.86437C43.4947 4.44567 42.8276 4.71811 42.2374 4.49838C41.6471 4.27865 41.3205 3.63632 41.5171 3.03795L41.6016 2.78076Z" fill="#F5A623"/>
<path d="M44.2774 3.89172C44.5708 3.21991 45.3547 2.91065 46.0137 3.23169C46.0252 3.23727 46.0366 3.24286 46.0481 3.24846C46.7068 3.57029 46.9455 4.37843 46.5966 5.0232L46.5526 5.10463C46.228 5.70442 45.4798 5.92506 44.8669 5.62604C44.254 5.32703 43.9673 4.60151 44.2403 3.97657L44.2774 3.89172Z" fill="#F5A623"/>
<path d="M47.2799 5.40425C47.6451 4.7686 48.4581 4.54698 49.0781 4.93823C49.1164 4.96242 49.1547 4.9867 49.1929 5.01105C49.8112 5.40493 49.9575 6.2348 49.5384 6.83623L49.511 6.87541C49.1069 7.4552 48.3108 7.59509 47.7139 7.21665C47.1171 6.83822 46.9041 6.05845 47.2561 5.44567L47.2799 5.40425Z" fill="#F5A623"/>
<path d="M49.971 7.14334C50.4005 6.54925 51.2322 6.41366 51.8079 6.86744C51.8331 6.88729 51.8583 6.90717 51.8834 6.92709C52.4578 7.3826 52.5178 8.22313 52.0388 8.77814L51.9957 8.82813C51.5406 9.35554 50.7457 9.41184 50.1993 8.9798C49.6528 8.54777 49.5241 7.76139 49.9323 7.19685L49.971 7.14334Z" fill="#F5A623"/>
<path d="M28.492 37.263L18.8441 34.6327L39.716 11.3011L35.5075 26.7377L45.1554 29.368L24.2835 52.6996L28.492 37.263Z" fill="#F5A623"/>
</svg>
